<svg width="318" height="325" viewBox="0 0 318 325" fill="none" xmlns="http://www.w3.org/2000/svg">
<g clip-path="url(#clip0_28_1361)">
<mask id="mask0_28_1361" style="mask-type:luminance" maskUnits="userSpaceOnUse" x="0" y="0" width="318" height="325">
<path d="M317.927 0.530273H0.355957V324.561H317.927V0.530273Z" fill="white"/>
</mask>
<g mask="url(#mask0_28_1361)">
<path d="M143.958 70.3776C135.804 72.0071 128.465 74.4515 121.942 77.7106C115.419 80.97 109.711 84.5008 104.818 88.3033C99.9261 92.1058 94.7617 97.5378 89.3257 104.599C83.8896 111.661 79.5408 119.537 76.2793 128.229C73.0175 136.92 71.1152 146.426 70.5714 156.747C70.0279 167.068 70.5714 175.759 72.2022 182.821C73.8332 189.882 76.0074 195.858 78.7255 200.747C81.4435 205.635 82.8026 211.882 82.8026 219.487C82.8026 227.092 78.7255 234.969 70.5714 243.117C62.4174 251.265 49.9145 260.227 33.0629 270.005C16.2111 279.784 6.69801 286.301 4.52359 289.56C2.34917 292.821 0.990162 296.621 0.446557 300.969C-0.0970456 305.313 1.80557 310.203 6.15441 315.634C10.5032 321.067 15.6675 323.781 21.6471 323.781C27.6269 323.781 32.791 322.153 37.1398 318.895C41.4886 315.634 48.0119 306.127 56.7094 290.376C65.4072 274.622 73.2894 262.944 80.3562 255.338C87.4233 247.734 95.3055 243.66 104.003 243.117C112.701 242.573 118.68 243.388 121.942 245.561C125.204 247.734 131.183 249.907 139.881 252.079C148.579 254.251 158.092 255.068 168.42 254.524C178.749 253.982 189.892 250.993 201.852 245.561C213.811 240.129 224.411 231.981 233.653 221.117C242.894 210.253 248.873 200.747 251.592 192.598C254.308 184.45 255.94 176.031 256.485 167.339C257.027 158.648 256.755 151.315 255.668 145.34C254.581 139.364 252.134 132.031 248.33 123.34C244.525 114.649 239.089 106.501 232.022 98.8957C224.955 91.2907 217.616 85.3156 210.006 80.97C202.395 76.6244 191.523 73.365 177.39 71.1924C163.256 69.0194 152.112 68.7478 143.958 70.3776ZM165.159 89.5563C175.487 89.5563 185.544 91.2907 195.328 95.6366C205.113 99.9822 212.602 105.763 219.125 113.368C225.648 120.972 231.206 129.858 234.468 139.636C237.73 149.414 238.817 158.648 237.73 167.339C237.186 171.685 236.642 176.031 236.099 180.376C236.371 176.302 236.642 172.228 236.914 168.154C237.458 160.006 236.808 150.88 233.547 141.102C230.285 131.325 225.103 122.483 219.124 115.421C213.144 108.359 206.88 103.173 199.813 99.3709C192.746 95.5684 183.323 92.1083 172.995 91.0221C162.666 89.9356 155.374 91.2907 150.481 92.3772C145.589 93.4637 139.321 95.4211 132.798 98.6805C126.275 101.94 119.427 105.944 114.534 110.832C109.642 115.721 104.537 122.727 100.188 133.048C95.8392 143.369 94.4961 153.633 95.0398 163.411C95.5833 173.189 98.8389 181.734 101.557 187.71C104.275 193.685 107.87 200.567 114.936 207.629C122.003 214.691 130.096 219.216 136.619 221.932C143.143 224.648 150.028 227.069 159.813 227.069C164.706 227.069 170.866 226.006 175.759 226.006C174.128 226.549 172.497 227.092 170.866 227.635C167.605 228.722 162.441 228.993 155.374 228.45C148.307 227.907 140.425 225.462 131.727 221.117C123.029 216.771 115.69 211.068 109.711 204.006C103.731 196.944 99.3824 189.068 96.6643 180.376C93.9463 171.685 92.8593 163.266 93.4028 155.117C93.9463 146.969 95.849 139.093 99.1107 131.488C102.372 123.883 106.449 117.365 111.342 111.933C115.28 107.56 120.98 103.363 128.44 99.3427C130.248 98.3686 132.159 97.4047 134.173 96.4514C144.501 91.5624 154.83 89.5563 165.159 89.5563ZM152.927 95.6366C157.548 95.6366 162.169 95.6366 166.789 95.6366C176.031 95.6366 185.544 98.0809 195.328 102.97C205.113 107.859 213.268 114.92 219.791 124.155C226.314 133.389 230.016 141.537 231.646 148.599C233.277 155.661 233.924 163.809 232.837 173.043C231.75 182.278 229.152 190.12 225.89 196.639C222.629 203.157 219.779 205.663 216.791 208.976C198.841 225.304 192.897 227.214 181.482 230.473C170.066 233.732 159.643 234.53 149.859 232.901C140.073 231.271 132.271 228.738 126.291 225.479C120.311 222.22 114.646 217.798 109.21 212.366C103.774 206.934 98.8389 200.747 95.0336 192.598C91.2283 184.45 89.054 175.216 88.5103 164.895C88.2387 159.735 87.9668 154.574 87.6949 149.414C88.2387 154.303 88.7822 159.191 89.3257 164.08C90.4129 173.858 92.8593 182.821 96.6643 190.969C100.47 199.117 105.425 207.789 113.579 214.851C121.733 221.912 130.159 226.801 138.857 229.517C147.555 232.233 158.761 233.396 170.177 231.766C181.593 230.136 193.76 225.065 203.545 218.546C213.33 212.028 219.676 204.696 223.481 198.177C227.286 191.659 230.885 182.416 231.972 171.009C233.06 159.601 231.558 150.462 228.296 141.227C225.035 131.993 218.975 123.883 214.083 118.451C209.19 113.019 202.411 107.472 193.17 103.126C183.929 98.7808 174.672 96.9945 165.974 96.4514C161.625 96.1797 157.276 95.908 152.927 95.6366ZM40.4013 279.784C42.0323 280.326 43.6631 280.87 45.2939 281.412C43.935 285.215 42.5758 289.018 41.217 292.821C38.4989 300.424 35.2372 305.858 31.4319 309.116C27.6269 312.375 24.3651 314.006 21.6471 314.006C20.2881 314.006 18.9291 314.006 17.5701 314.006C18.9291 313.461 20.2881 312.919 21.6471 312.375C23.0061 311.833 24.3651 311.289 25.7242 310.744C23.8215 310.475 21.9189 310.203 20.0163 309.93C16.2111 309.389 14.3085 306.944 14.3085 302.597C14.3085 298.252 17.8419 293.09 24.9087 287.117C31.9756 281.142 37.1398 278.697 40.4013 279.784ZM27.355 287.117C20.8317 292.004 17.0265 295.535 15.9393 297.71C14.8521 299.882 14.8521 302.327 15.9393 305.041C17.0265 307.758 19.2009 308.844 22.4625 308.302C24.0933 308.03 25.7242 307.758 27.355 307.486C27.355 308.03 27.355 308.572 27.355 309.116C27.355 309.658 27.355 310.203 27.355 310.744C28.4422 309.93 29.5292 309.116 30.6165 308.302C32.791 306.672 35.509 302.597 38.7706 296.079C42.0323 289.56 42.5758 285.215 40.4013 283.042C38.2271 280.87 33.8783 282.228 27.355 287.117ZM35.509 283.042C36.0525 283.042 36.5963 283.042 37.1398 283.042C36.8679 283.584 36.5963 284.129 36.3244 284.673C35.7809 285.759 33.0629 287.659 28.1704 290.376C25.7242 291.734 23.2779 293.09 20.8317 294.449C23.0061 292.548 25.1805 290.648 27.355 288.746C31.7038 284.943 34.4218 283.042 35.509 283.042Z" fill="black"/>
<path d="M111.614 149.524L111.577 149.56C111.614 149.524 111.614 149.524 111.614 149.487V149.304C112.016 147.148 112.784 145.029 113.552 142.946C114.357 140.753 115.124 138.597 116.148 136.514C117.099 134.54 118.197 132.603 119.44 130.813C120.537 129.168 121.854 127.378 123.536 126.281C124.048 126.135 124.56 125.587 125.218 125.696C125.877 125.806 125.877 126.5 125.73 127.158C125.913 126.647 126.023 126.098 125.584 125.733C124.999 125.294 123.865 125.989 123.39 126.318C123.17 126.391 122.951 126.537 122.768 126.683C122.878 126.574 123.024 126.464 123.207 126.354L123.024 126.427L123.536 126.135C124.121 125.806 125.438 125.075 125.877 126.025C126.206 126.793 125.694 128.072 125.438 128.803C124.962 130.045 124.377 131.215 123.755 132.384C123.865 132.128 124.304 131.142 124.304 131.142C124.048 131.105 122.878 133.81 122.658 133.882H122.695C122.549 133.992 122.439 134.102 122.439 134.138C122.366 134.577 122.878 134.467 123.17 134.431C124.414 134.284 126.023 133.225 126.827 132.311C127.705 131.325 128.034 129.826 128.034 128.51V128.474C127.998 125.989 126.279 122.846 123.316 123.029C121.671 123.102 120.135 124.71 119.074 125.806C118.306 126.683 117.575 127.633 116.916 128.584C116.624 129.022 116.331 129.424 116.075 129.863C115.783 130.265 115.198 130.886 115.051 131.361C115.051 131.361 115.234 131.142 115.381 130.995C114.978 131.617 114.612 132.275 114.247 132.896C114.21 132.859 114.466 132.348 114.466 132.348C114.137 132.275 112.638 135.271 112.455 135.6C111.796 136.806 111.211 138.012 110.809 139.291C110.37 140.716 109.785 142.069 109.346 143.457C109.127 144.152 108.907 144.809 108.761 145.504C108.688 145.833 108.615 146.125 108.578 146.454C108.578 146.49 108.505 147.075 108.578 147.002C108.505 147.258 108.505 147.587 108.468 147.843C108.468 147.843 108.468 147.221 108.505 147.148C108.359 147.331 108.468 148.025 108.432 148.099C108.249 149.487 107.956 150.949 108.432 152.301C109.054 154.165 110.589 155.7 112.272 156.687C113.15 157.235 114.32 157.856 115.417 157.783C116.697 157.71 117.94 156.65 118.891 155.883C121.671 153.544 124.194 150.255 124.67 146.527C124.706 146.271 124.889 144.992 124.45 144.956C124.048 144.919 123.755 145.796 123.609 146.015C122.512 147.806 121.232 149.487 119.806 151.022C118.343 152.63 116.514 154.348 114.283 154.859C113.991 154.932 113.662 154.969 113.332 154.969C112.894 154.932 112.491 154.823 112.162 154.494C111.979 154.311 111.796 153.69 111.577 153.58C111.577 153.398 111.541 153.215 111.504 153.105L111.394 152.886C111.358 151.789 111.394 150.766 111.577 149.633V149.597C111.577 149.56 111.614 149.56 111.614 149.524ZM118.05 131.653C116.624 133.992 115.417 136.404 114.21 138.889C113.515 140.351 112.82 141.849 112.272 143.421C113.04 140.972 113.954 138.633 115.051 136.295C116.368 133.48 118.123 130.74 120.208 128.474C119.367 129.497 118.635 130.667 118.05 131.653ZM121.817 127.633C121.305 128.145 120.83 128.73 120.391 129.278C121.086 128.364 121.817 127.451 122.731 126.72C122.402 127.012 122.073 127.378 121.817 127.633ZM125.547 127.926C125.62 127.707 125.694 127.451 125.73 127.158C125.657 127.487 125.511 127.816 125.511 128.072C125.547 127.999 125.547 127.962 125.547 127.926Z" fill="white"/>
<path d="M146.77 143.457C146.588 143.457 146.332 143.823 146.222 143.932C145.71 144.444 145.271 145.029 144.832 145.577C143.625 146.966 142.418 148.391 141.102 149.67C140.773 149.962 139.932 150.949 139.456 150.62C139.164 150.437 139.42 149.268 139.456 149.012C139.529 148.683 140.188 146.966 139.968 146.747C139.859 146.673 139.676 147.221 139.639 147.258C140.224 145.212 141.394 142.873 142.345 140.863C142.894 139.766 143.589 138.414 142.675 137.281C141.065 135.308 139.054 137.829 137.957 138.999C137.481 139.511 132.873 145.138 132.946 145.175C132.946 145.175 133.276 144.773 133.751 144.225C133.056 145.138 132.398 146.052 131.776 147.002C132.178 145.504 132.617 144.042 133.093 142.58C133.349 141.849 133.568 141.082 133.824 140.314C134.117 139.511 134.336 139.182 134.958 138.597C136.019 137.647 137.042 136.624 137.993 135.527C138.359 135.089 138.615 134.577 138.981 134.175C139.31 133.846 139.785 133.554 140.151 133.152C142.016 130.959 143.516 128.218 144.759 125.66C145.308 124.454 145.82 123.212 146.185 121.933C146.258 121.64 147.063 118.278 146.88 118.278C146.844 118.278 146.844 118.315 146.807 118.388C146.844 117.803 146.807 117.145 146.588 116.56C146.624 116.56 146.807 117.109 146.807 117.109C147.027 116.962 146.368 115.83 146.222 115.683C145.893 115.354 145.417 115.172 144.942 115.172C143.991 115.099 143.113 115.61 142.382 116.158C140.992 117.218 140.005 118.79 138.981 120.215C138.395 121.019 137.847 121.823 137.335 122.663C136.969 123.212 136.165 124.198 136.165 124.856C136.201 124.893 136.238 124.893 136.238 124.893L135.799 125.733C135.799 125.733 136.019 125.075 136.055 125.039C135.872 125.148 135.689 125.916 135.689 125.952C134.263 128.73 132.764 131.398 131.776 134.358C130.642 137.683 129.801 141.118 129.18 144.554C128.887 146.125 128.521 147.843 128.668 149.451C128.668 149.889 128.704 150.401 129.033 150.766C129.436 151.278 130.277 151.461 130.752 150.949C130.898 150.766 130.898 150.657 130.972 150.474L131.63 149.305C132.508 147.952 133.568 146.71 134.409 145.321C134.519 145.102 134.629 144.846 134.775 144.663C134.958 144.444 135.031 144.554 135.25 144.371C135.872 143.859 136.348 143.092 136.86 142.471C137.92 141.155 138.981 139.657 140.334 138.56L139.273 141.118L139.383 141.009L138.835 142.251C138.798 142.215 138.944 141.886 138.944 141.849C138.798 141.849 138.103 143.275 138.03 143.421C137.591 144.298 137.116 145.175 136.86 146.089C136.64 146.966 136.384 147.843 136.128 148.72C136.019 149.268 135.909 149.816 135.945 150.364C135.945 150.511 136.238 151.826 136.348 151.717V151.57C136.421 151.79 136.494 151.972 136.604 152.155L136.384 151.826C136.274 152.082 137.262 152.922 137.372 153.032C137.92 153.58 138.469 153.946 139.31 153.982C140.005 154.019 140.371 153.763 140.882 153.288C142.272 151.936 143.26 150.072 144.32 148.464C144.905 147.624 145.491 146.747 146.039 145.869C146.185 145.687 147.173 143.64 147.027 143.677C147.246 143.64 146.844 143.457 146.77 143.457ZM143.589 118.863V118.826C143.589 118.826 143.625 118.826 143.625 118.79V118.826C143.662 118.753 143.699 118.68 143.662 118.717C143.954 118.278 144.686 116.962 145.198 117.401C145.71 117.839 145.234 119.374 145.088 119.923C144.796 121.055 144.357 122.152 143.918 123.212C143.04 125.258 141.943 127.195 140.736 129.095C140.151 130.009 139.529 130.923 138.907 131.8C138.578 132.238 138.249 132.677 137.884 133.115L137.591 133.444L138.249 132.786L139.712 130.74C140.517 129.643 141.285 128.438 142.016 127.231C140.151 130.521 137.884 133.627 135.25 136.404L136.348 133.517C136.457 133.298 137.225 131.142 137.225 131.142C137.152 131.178 137.042 131.361 136.933 131.544C137.81 129.534 138.944 127.451 139.968 125.441C141.102 123.248 142.236 120.982 143.552 118.899C143.552 118.899 143.589 118.899 143.589 118.863ZM134.409 136.77C134.738 134.796 135.653 132.932 136.311 131.032C136.896 129.424 137.847 127.962 138.578 126.427C138.907 125.697 142.418 119.009 142.492 119.045C142.784 119.228 138.286 127.816 137.81 128.84C137.408 129.607 137.042 130.338 136.75 131.178C136.494 131.982 136.055 132.64 135.762 133.408C135.616 133.773 134.153 137.61 134.263 137.647C134.19 137.647 134.336 137.062 134.373 136.879L134.409 136.77ZM136.933 134.211C137.006 134.139 137.079 133.992 137.189 133.883C137.079 133.992 137.006 134.102 136.933 134.211ZM143.589 118.863V118.826H143.625L143.589 118.863ZM134.409 136.806C134.409 136.843 134.373 136.843 134.373 136.879C134.373 136.879 134.409 136.843 134.409 136.806Z" fill="white"/>
<path d="M160.606 143.421C160.606 143.458 160.606 143.458 160.569 143.421V143.384C159.984 142.398 159.216 143.75 158.887 144.225C158.265 145.065 157.68 145.869 157.022 146.637C156.473 147.295 155.888 147.952 155.449 148.647C155.449 148.72 155.376 148.903 155.376 148.903C155.23 149.122 155.01 149.305 154.827 149.524C154.498 149.853 154.169 150.218 153.803 150.547C153.255 151.059 150.183 153.946 149.78 152.082C149.561 151.168 149.854 150.035 150.037 149.158C150.146 148.683 150.256 148.245 150.329 147.77C150.402 147.404 150.292 147.039 150.475 146.673C150.585 146.454 150.622 146.491 150.878 146.417L151.499 146.198C151.902 146.052 152.304 145.906 152.67 145.687C153.218 145.358 153.73 144.956 154.206 144.554C155.339 143.604 156.546 142.471 157.022 141.045C157.278 140.242 157.314 139.364 156.802 138.67C156.327 138.049 155.522 137.72 154.791 137.574C152.816 137.208 151.317 138.341 150.183 139.84C148.793 141.557 147.806 143.677 147.33 145.833C147.074 146.893 146.928 147.952 146.745 149.049C146.562 150.145 146.452 151.168 147.038 152.192C147.001 151.826 146.928 151.497 146.928 151.168C146.928 150.986 147.001 150.803 147.001 150.657C147.001 150.584 146.928 150.364 146.928 150.255C146.928 149.926 147.001 149.67 147.074 149.341C147.111 149.012 147.074 148.683 147.111 148.354C147.147 147.989 147.294 147.697 147.44 147.368C147.55 147.075 147.586 146.82 147.696 146.527C147.806 146.271 147.879 145.979 147.989 145.687C148.025 145.504 148.208 145.285 148.318 145.065C148.208 145.394 147.989 145.687 147.915 145.979C147.806 146.417 147.879 146.893 147.842 147.331C147.769 147.806 147.623 148.281 147.55 148.793C147.477 149.268 147.257 149.707 147.184 150.182C147.111 150.62 146.964 150.949 147.001 151.388C147.001 151.644 147.038 151.899 147.074 152.118C147.111 152.411 147.294 152.594 147.477 152.813C148.098 153.544 148.939 154.129 149.89 154.384C150.548 154.567 151.134 154.531 151.755 154.202C152.633 153.727 153.401 152.996 154.059 152.301C154.681 151.607 155.157 150.839 155.705 150.109C156.217 149.451 156.839 148.83 157.351 148.172L159.326 145.614L160.459 144.115C160.642 143.896 160.752 143.713 160.606 143.421ZM151.536 143.823C151.572 143.75 151.572 143.713 151.572 143.713C152.121 142.544 152.523 141.301 153.291 140.168L153.95 139.291C154.096 139.109 154.352 138.78 154.608 138.707C155.157 138.597 155.303 139.547 155.266 139.913L155.12 140.68C155.083 140.899 155.157 141.045 155.12 141.228C155.047 141.447 154.864 141.557 154.754 141.74L154.132 142.544C153.291 143.53 152.231 144.371 151.06 144.992C151.243 144.59 151.353 144.188 151.536 143.823Z" fill="white"/>
<path d="M175.283 143.458V143.421C174.99 142.507 173.454 144.883 173.271 145.102C172.064 146.491 170.674 148.062 168.919 148.756C168.48 148.976 167.603 149.268 167.383 148.756C167.237 148.428 167.383 147.66 167.346 147.295C167.273 146.82 167.2 146.308 166.981 145.869C166.359 144.846 165.664 145.541 165.445 146.381C165.262 147.222 165.262 148.172 165.445 148.976C165.518 149.414 165.884 149.853 165.957 150.291C166.03 150.657 165.847 151.205 165.774 151.57C165.445 153.215 164.933 154.786 164.275 156.321C163.835 157.418 161.532 162.497 160.142 159.903L160.105 159.866L160.252 159.976C159.923 158.514 160.435 156.723 160.764 155.298C161.276 153.215 161.897 151.205 162.592 149.195C162.739 148.683 162.921 148.172 163.104 147.624C163.323 147.075 163.397 146.929 163.763 146.527C164.238 146.052 164.677 145.541 165.116 145.065C166.505 143.458 167.858 141.849 169.139 140.205C171.26 137.464 173.198 134.394 174.551 131.215C175.246 129.534 176.307 124.527 172.979 124.893C171.296 125.075 169.87 127.487 168.992 128.73C167.785 130.484 166.725 132.384 165.774 134.248C164.018 137.61 162.336 141.009 161.312 144.627C160.215 148.464 158.606 152.192 158.386 156.285C158.277 157.966 158.277 160.451 159.776 161.584C161.495 162.899 163.287 161.839 164.311 160.268C165.481 158.477 165.957 156.102 166.542 154.055C166.688 153.544 166.798 153.032 166.908 152.52C166.944 152.228 166.981 151.022 167.2 150.839C167.383 150.657 168.188 150.693 168.407 150.62C170.272 150.109 172.284 148.61 173.271 146.929C173.856 146.015 175.612 144.736 175.283 143.458ZM165.372 141.74C165.372 141.703 165.408 141.667 165.408 141.63V141.667C165.628 141.192 165.664 141.045 165.628 141.082C166.908 138.049 168.224 135.016 169.76 132.128C170.528 130.703 171.26 129.242 172.247 127.962C172.503 127.634 172.942 126.903 173.417 127.049C174.807 127.451 171.296 134.431 170.784 135.271C169.029 138.231 166.908 141.009 164.604 143.604L165.372 141.74ZM160.544 153.873C160.69 153.361 160.837 152.849 161.02 152.374C160.764 153.178 160.544 154.055 160.398 154.896C160.252 155.59 159.703 157.271 159.703 158.551C159.52 156.979 160.069 155.261 160.544 153.873ZM165.518 141.374L165.628 141.082C165.628 141.119 165.554 141.265 165.518 141.374Z" fill="white"/>
<path d="M177.891 133.854C178.546 133.747 179.043 133.378 179.382 132.747C179.722 132.117 179.891 131.391 179.891 130.57C179.891 130.487 179.888 130.413 179.882 130.347C179.876 130.282 179.861 130.208 179.837 130.124H177.891V126.234H181.713V129.821C181.713 131.344 181.397 132.638 180.766 133.702C180.135 134.767 179.177 135.377 177.891 135.531V133.854Z" fill="white"/>
<path d="M199.705 143.86C199.595 143.348 199.303 143.275 198.937 143.421C198.242 143.75 197.547 144.481 196.889 144.919C195.389 145.869 193.89 146.637 192.281 147.441C192.281 147.404 192.244 147.331 192.208 147.222C192.244 147.404 192.208 147.478 192.171 147.514C191.805 145.943 191.44 144.371 191.147 142.763C191.293 143.458 191.623 144.627 191.879 145.614C191.549 144.079 191.147 142.178 191.184 142.178C191.111 142.215 191.111 142.288 191.111 142.361C191.037 141.923 190.928 141.375 191.001 140.899C191.037 140.351 191.33 139.876 191.513 139.364C191.476 139.62 191.403 139.949 191.403 139.949C191.623 139.986 191.769 138.634 191.769 138.487C191.732 138.268 191.257 137.574 191.257 137.757C190.269 136.843 188.331 138.853 188.038 139.73C187.819 140.315 187.819 140.936 187.856 141.557C187.892 142.178 188.075 142.727 188.258 143.311C188.368 143.75 188.221 144.042 188.258 144.517C188.331 145.248 188.587 145.979 188.733 146.673C188.88 147.222 189.355 148.318 189.245 148.83C189.172 149.341 188.075 149.78 187.6 150.072C186.978 150.474 186.356 150.949 185.735 151.424C184.637 152.265 183.467 153.325 183.028 154.677C182.955 154.86 182.699 155.664 182.955 155.81C182.992 155.846 183.101 155.225 183.138 155.152C182.662 157.564 185.04 158.733 187.271 158.77C189.794 158.843 191.549 157.381 192.427 155.115C192.793 154.129 192.903 153.105 192.866 152.082C192.866 151.388 192.793 150.73 192.683 150.072C192.61 149.487 192.537 149.524 192.939 149.195C193.232 148.976 193.67 148.83 193.963 148.683C195.133 148.062 196.194 147.331 197.255 146.564C198.022 146.016 199.851 145.065 199.705 143.896V143.86ZM184.93 156.431C183.979 156.138 184.93 154.64 185.259 154.165C185.808 153.434 186.612 152.886 187.344 152.374L188.441 151.644C188.551 151.57 189.245 151.022 189.026 151.095L189.465 150.84L189.209 151.059C189.282 151.022 189.392 150.986 189.465 150.913C189.501 151.79 189.501 152.667 189.245 153.544C189.209 153.69 188.514 155.152 188.221 155.444L188.404 155.298C188.075 155.7 187.709 156.029 187.271 156.285C187.271 156.248 187.6 156.029 187.563 155.992L186.539 156.394C186.027 156.504 185.442 156.614 184.93 156.431ZM189.538 157.491C188.587 157.893 187.673 158.075 186.685 158.112C188.477 158.002 190.342 157.125 191.403 155.627C191.001 156.431 190.489 157.052 189.538 157.491ZM192.208 147.112C192.171 146.856 192.098 146.491 191.988 146.089C192.061 146.491 192.135 146.893 192.208 147.112ZM192.683 150.913C192.646 150.876 192.646 150.803 192.646 150.73C192.646 150.803 192.683 150.876 192.683 150.913Z" fill="white"/>
<path d="M174.545 172.374C174.508 172.191 174.398 172.081 174.215 172.045C174.032 172.008 173.996 172.228 173.922 172.264C173.739 172.264 173.52 172.228 173.337 172.191C171.581 172.081 169.824 172.118 168.068 172.191C167.629 172.228 167.19 172.264 166.751 172.264C166.568 172.301 166.275 172.374 166.055 172.337C165.726 172.228 166.055 172.301 165.836 172.081C165.397 171.679 165.25 171.387 164.592 171.167C163.97 170.985 162.872 170.911 162.396 171.46C162.14 171.752 162.14 172.337 161.665 172.63C161.372 172.813 160.75 172.74 160.42 172.776C160.055 172.813 159.689 172.886 159.323 172.996C158.627 173.142 158.006 173.215 157.274 173.288C155.517 173.398 153.798 173.727 152.041 174.019C151.675 174.056 151.053 174.129 150.651 174.348C149.37 175.007 150.797 176.25 151.675 176.506C152.59 176.762 153.505 176.652 154.42 176.542C155.225 176.433 156.066 176.433 156.835 176.213C157.31 176.103 157.64 175.921 158.115 175.847C158.737 175.774 159.359 175.701 159.981 175.592C158.371 178.846 157.164 182.246 155.883 185.61C154.566 188.974 153.249 192.338 152.114 195.738C151.675 197.128 151.053 198.663 150.139 199.797C149.7 200.382 149.553 200.345 148.968 199.906C147.723 198.919 146.955 197.42 146.077 196.177C145.821 195.811 145.235 194.934 144.76 195.446C144.577 195.629 144.613 196.067 144.613 196.323C144.65 197.566 145.126 199.248 145.711 200.345C146.479 201.808 147.833 202.941 149.48 203.087C152.444 203.343 154.054 198.883 154.859 196.762C155.956 193.764 157.384 190.875 158.591 187.95C158.847 187.292 158.957 186.67 159.103 186.049C159.323 185.244 159.762 184.477 160.091 183.709C160.677 182.392 161.152 181.003 161.848 179.723L163.238 176.944C163.458 176.542 163.75 176.14 163.897 175.701C163.933 175.518 163.897 175.299 163.97 175.153C164.299 174.495 165.36 174.677 165.982 174.604L168.617 174.166C169.056 174.092 169.532 174.019 170.007 173.91C170.154 173.873 170.336 173.836 170.483 173.763C170.593 173.727 170.703 173.508 170.739 173.508C171.361 173.288 172.239 173.361 172.898 173.215C173.3 173.142 174.618 173.032 174.545 172.374ZM160.603 180.857C160.055 181.844 158.262 185.939 157.566 187.511C158.298 185.647 159.872 181.369 160.53 179.869C161.079 178.553 162.287 176.798 163.091 175.592C162.14 177.274 161.482 179.175 160.603 180.857Z" fill="white"/>
<path d="M179.411 190.327C179.374 189.522 178.716 190.217 178.496 190.51C178.021 191.204 177.581 191.936 177.142 192.63C176.155 194.129 175.167 195.629 174.032 197.055C170.263 201.698 172.898 193.435 172.605 193.508C172.459 193.544 172.349 194.093 172.312 194.202C172.605 192.886 173.154 191.314 173.849 190.034C174.252 189.23 174.728 188.572 173.996 187.694C172.642 186.049 171.068 187.548 170.19 188.681C169.824 187.292 169.093 185.244 167.3 185.244C166.495 185.244 166.019 185.647 165.47 186.122C165.141 186.341 164.884 186.378 164.592 186.634C164.116 186.963 163.787 187.475 163.458 187.913C162.213 189.742 161.335 192.045 160.933 194.166C160.75 195.19 160.677 196.323 160.97 197.347C161.152 197.932 161.811 199.248 162.653 199.139C162.689 199.139 162.616 199.102 162.506 199.029C163.019 199.175 163.604 199.102 164.043 198.81C164.08 198.883 163.641 199.065 163.641 199.065C164.043 199.687 167.044 196.067 167.263 195.738C167.739 195.08 168.068 194.385 168.507 193.691C168.836 193.179 169.349 192.52 169.715 191.972C169.678 192.228 169.678 192.557 169.678 192.557C169.019 194.641 168.397 196.908 169.275 199.065C169.678 200.162 170.666 201.186 171.91 200.967C173.008 200.784 173.922 199.724 174.581 198.883C175.386 197.932 176.081 196.872 176.777 195.775C177.362 194.788 177.911 193.8 178.387 192.704C178.679 192.009 179.484 191.168 179.411 190.327ZM168.91 190.583C168.726 190.839 168.544 191.095 168.397 191.351L167.446 192.704C166.824 193.617 166.165 194.495 165.47 195.336C165.287 195.592 164.409 196.725 164.043 196.616C163.494 196.433 164.08 194.532 164.153 194.239C164.263 193.727 166.202 188.096 166.714 187.987C166.055 187.95 163.933 194.568 163.823 195.117C164.116 193.325 164.775 191.57 165.507 189.925C165.909 189.084 166.824 186.853 168.031 186.853C168.69 186.853 168.836 188.206 168.946 188.645C168.91 188.572 168.58 187.511 168.544 187.548C168.361 187.694 169.093 189.705 169.093 189.998C169.093 190.29 169.093 190.29 168.91 190.583ZM169.751 192.374C169.751 192.374 169.861 191.863 169.897 191.753L170.08 191.497L169.751 192.374ZM169.202 190.107V189.742C169.312 189.888 169.312 189.998 169.202 190.107Z" fill="white"/>
<path d="M195.328 190.181V190.144H195.291C194.852 189.522 194.193 190.51 193.754 190.839C192.803 191.607 191.815 192.228 190.79 192.886C190.827 192.704 190.827 190.729 190.717 190.802C190.644 190.912 190.644 191.022 190.644 191.131C190.571 189.961 190.388 188.462 188.961 188.023C188.412 187.841 187.9 187.987 187.387 188.206C185.96 188.864 184.753 190.254 183.728 191.351C182.85 192.301 182.045 193.325 181.313 194.385C181.716 193.873 182.155 193.398 182.521 192.996C181.716 194.02 180.948 195.117 180.362 196.287L180.509 195.702L180.435 195.884C180.728 193.91 181.094 191.936 181.533 189.998C181.716 189.084 181.826 187.731 182.302 186.926C182.667 186.268 183.802 186.195 184.204 185.537C184.204 185.537 184.094 185.61 183.948 185.683C184.46 185.281 184.936 184.842 185.412 184.44C185.412 184.477 185.046 184.842 185.046 184.842C185.302 185.025 187.351 182.868 187.534 182.648C188.412 181.734 189.254 180.747 189.912 179.614C190.498 178.59 191.156 177.603 191.705 176.579C192.071 175.994 192.364 175.409 192.657 174.787C192.84 174.348 193.352 173.434 193.242 172.922C193.205 172.886 193.169 172.886 193.132 172.922L193.352 172.045C193.352 172.045 193.279 172.74 193.242 172.776C193.425 172.63 193.388 171.862 193.388 171.862C193.828 169.778 193.828 165.61 190.864 165.463C189.327 165.427 188.083 166.816 187.205 167.877C186.18 169.156 185.302 170.582 184.534 172.045C183.106 174.568 182.009 177.274 180.911 179.943C179.667 183.014 178.569 186.195 177.837 189.413C177.362 191.314 176.996 193.215 176.85 195.153C176.813 195.629 176.483 198.224 177.142 198.48C177.142 198.517 177.142 198.371 177.106 198.152C177.142 198.334 177.215 198.444 177.289 198.59C177.252 198.59 177.471 199.139 177.471 199.139C177.654 199.468 177.911 199.797 178.24 200.016C178.862 200.455 179.703 200.674 180.143 199.943C180.509 199.358 180.655 198.371 180.984 197.713C181.094 197.42 181.24 197.128 181.387 196.835C181.35 196.652 181.387 196.506 181.533 196.396C181.606 196.433 181.679 196.396 181.789 196.323C182.338 195.702 182.667 194.861 183.106 194.129C183.289 193.837 185.668 190.692 185.96 190.546C185.924 190.546 185.887 190.546 185.851 190.583C186.07 190.363 186.253 190.217 186.509 190.034C186.546 190.107 186.326 190.217 186.363 190.254C186.363 190.254 187.68 189.778 187.827 189.778C188.302 189.888 188.229 190.656 188.193 191.022C188.119 191.57 187.863 192.082 187.607 192.557C187.461 192.85 187.205 193.179 187.131 193.471C187.131 193.508 186.912 194.093 187.131 193.837L187.022 194.02C186.912 194.202 186.217 195.117 186.07 195.226C185.448 195.811 184.973 196.506 184.387 197.091C183.655 197.822 182.009 198.152 183.106 199.504C185.082 201.918 188.119 198.115 189.18 196.579C189.766 195.702 190.498 194.934 191.12 194.202C191.339 193.947 191.742 193.617 192.035 193.435C192.144 193.361 192.327 193.361 192.437 193.252C192.73 192.959 192.766 192.813 193.022 192.557C193.498 192.082 194.303 191.936 194.742 191.387C194.815 191.277 194.815 191.204 194.706 191.095C194.742 191.022 194.815 191.022 194.889 191.058L195.108 190.948C195.291 190.692 195.547 190.546 195.328 190.181ZM191.23 167.109C192.4 167.109 192.254 170.18 192.218 170.838C192.144 171.899 191.888 172.959 191.522 173.946C191.266 174.714 190.973 175.884 190.498 176.506C189.546 177.749 188.485 179.175 187.461 180.455C186.144 182.1 184.57 183.489 182.924 184.806C183.582 182.612 184.351 180.418 185.192 178.261C185.412 177.749 187.534 172.191 187.827 171.935C187.753 171.972 187.68 172.045 187.607 172.155C188.229 170.802 188.888 169.449 189.839 168.242L189.363 169.12C189.729 168.681 191.156 167.072 191.23 167.182C191.193 167.109 190.937 167.182 190.827 167.255C190.937 167.145 191.083 167.109 191.23 167.109ZM184.021 173.8C184.863 172.191 185.741 170.692 186.875 169.229C187.607 168.242 188.668 167.072 189.986 166.633C188.705 167.072 187.827 168.206 187.058 169.266C185.997 170.729 185.119 172.264 184.204 173.836C182.814 176.213 181.716 178.736 180.765 181.259C181.679 178.736 182.741 176.213 184.021 173.8ZM186.436 195.555C185.814 196.396 184.899 197.457 183.985 197.968C184.46 197.676 184.826 197.128 185.302 196.579C185.96 195.738 186.583 194.897 187.205 194.02C187.497 193.617 188.339 192.118 188.595 190.948C188.339 192.594 187.314 194.202 186.436 195.555ZM182.741 184.952V184.879L182.777 184.806C182.777 184.769 182.814 184.732 182.814 184.659C182.814 184.623 182.814 184.586 182.85 184.55V184.513L183.326 183.014L183.143 183.672C183.07 183.965 182.96 184.769 182.741 184.952ZM184.387 180.016C184.973 178.48 185.558 176.944 186.18 175.445L184.387 180.016ZM180.545 195.665L181.313 194.385C181.021 194.788 180.728 195.226 180.545 195.665ZM182.741 184.952C182.741 184.915 182.777 184.879 182.777 184.842L182.741 184.879V184.952ZM183.582 191.68C183.582 191.716 183.545 191.716 183.545 191.716L183.582 191.68Z" fill="white"/>
<path d="M207.366 189.815C206.854 190.363 206.525 191.277 206.122 191.936C205.5 192.996 204.878 194.02 204.219 195.043C202.975 197.018 201.731 199.029 200.231 200.821C199.609 201.588 198.292 203.453 197.048 203.307C196.133 203.161 196.133 201.588 196.133 200.894C196.133 200.309 196.169 199.724 196.243 199.175C196.279 198.846 196.572 197.749 196.389 197.457L196.096 198.554C196.133 198.115 196.206 197.64 196.316 197.201C196.279 197.128 196.608 196.104 196.682 195.775C196.865 195.043 197.048 194.312 197.267 193.581C197.45 192.85 197.633 192.155 197.853 191.46C198.036 190.802 198.292 190.473 198.694 189.961C200.341 187.913 201.841 185.683 203.231 183.453C203.744 182.612 204.073 181.881 204.695 181.186C205.61 180.235 206.232 178.809 206.817 177.639C207.805 175.738 209.123 173.105 208.903 170.875V170.692L208.866 170.655C208.647 169.229 207.33 167.548 205.72 168.059C204.878 168.315 204.256 169.193 203.744 169.814L202.902 170.948C202.719 171.167 202.463 171.716 202.28 172.008L202.317 171.972L201.146 173.983L201.439 173.361C201.256 173.324 200.45 174.897 200.341 175.08C199.938 175.774 199.572 176.469 199.243 177.164C198.511 178.626 197.779 180.125 197.304 181.698C196.791 183.27 196.206 184.806 195.657 186.378C195.365 187.219 195.072 188.096 194.816 188.937C194.596 189.632 194.084 190.766 194.194 191.497H194.303C194.194 191.753 194.12 192.009 194.047 192.265C194.084 192.045 194.084 191.789 194.12 191.716C193.937 191.972 193.974 192.85 193.937 192.923C193.462 194.897 192.913 196.872 192.766 198.919C192.657 200.857 192.657 203.416 194.194 204.843C195.913 206.415 197.889 205.354 199.316 204.002C201 202.356 202.426 200.418 203.744 198.517C204.951 196.762 205.903 194.897 207 193.142C207.439 192.411 207.915 191.68 208.135 190.875C208.281 190.29 208.208 188.937 207.366 189.815ZM202.792 176.725C203.524 174.97 204.256 173.178 205.281 171.533C205.537 171.131 207.183 168.937 207.11 170.875V170.911C207.037 172.959 205.72 175.116 204.842 176.871L203.305 179.723C202.792 180.601 201.914 181.698 201.621 182.648C201.841 182.063 202.5 181.222 202.829 180.674C203.378 179.76 203.853 178.846 204.366 177.932C205.207 176.323 206.122 174.641 206.744 172.886C205.098 177.785 202.024 182.356 199.316 186.707C200.377 183.489 201.439 179.979 202.792 176.725ZM201.621 174.165C201.987 173.471 202.646 172.886 203.012 172.228C202.243 173.763 201.292 175.153 200.487 176.615C200.487 176.579 200.487 176.506 200.524 176.469C200.853 175.665 201.219 174.933 201.621 174.165ZM194.706 193.069C194.669 193.142 194.669 193.179 194.669 193.179C194.23 194.202 194.194 195.592 193.974 196.689C193.937 196.945 193.864 197.164 193.864 197.42V197.311L193.755 198.48C193.828 197.164 193.974 195.811 194.23 194.532V194.568C194.34 193.727 194.523 192.959 194.669 192.959C194.742 192.923 194.742 193.032 194.706 193.069Z" fill="white"/>
<path d="M219.698 190.107C219.698 190.144 219.698 190.144 219.661 190.107V190.071C219.075 189.084 218.307 190.437 217.978 190.912C217.356 191.753 216.77 192.557 216.112 193.325C215.563 193.983 214.977 194.641 214.538 195.336C214.538 195.409 214.465 195.592 214.465 195.592C214.319 195.811 214.099 195.994 213.916 196.214C213.587 196.543 213.257 196.908 212.892 197.237C212.343 197.749 209.269 200.638 208.867 198.773C208.647 197.859 208.94 196.726 209.123 195.848C209.232 195.373 209.342 194.934 209.415 194.459C209.489 194.093 209.379 193.727 209.562 193.362C209.672 193.142 209.708 193.179 209.964 193.106L210.586 192.886C210.989 192.74 211.391 192.594 211.757 192.374C212.306 192.045 212.818 191.643 213.294 191.241C214.428 190.29 215.636 189.157 216.112 187.731C216.368 186.926 216.404 186.049 215.892 185.354C215.416 184.733 214.611 184.403 213.88 184.257C211.904 183.892 210.403 185.025 209.269 186.524C207.879 188.243 206.891 190.363 206.415 192.521C206.159 193.581 206.012 194.641 205.83 195.738C205.647 196.835 205.537 197.859 206.122 198.883C206.086 198.517 206.012 198.188 206.012 197.859C206.012 197.676 206.086 197.493 206.086 197.347C206.086 197.274 206.012 197.055 206.012 196.945C206.012 196.616 206.086 196.36 206.159 196.031C206.195 195.702 206.159 195.373 206.195 195.044C206.232 194.678 206.379 194.385 206.525 194.056C206.635 193.764 206.671 193.508 206.781 193.215C206.891 192.96 206.964 192.667 207.074 192.374C207.11 192.192 207.293 191.972 207.403 191.753C207.293 192.082 207.074 192.374 207.001 192.667C206.891 193.106 206.964 193.581 206.927 194.02C206.854 194.495 206.708 194.97 206.635 195.482C206.561 195.958 206.342 196.396 206.269 196.872C206.195 197.311 206.049 197.64 206.086 198.078C206.086 198.334 206.122 198.59 206.159 198.81C206.195 199.102 206.379 199.285 206.561 199.504C207.183 200.236 208.025 200.821 208.976 201.077C209.635 201.259 210.221 201.223 210.843 200.894C211.721 200.418 212.489 199.687 213.148 198.992C213.77 198.298 214.245 197.53 214.794 196.799C215.307 196.141 215.929 195.519 216.441 194.861L218.417 192.301L219.551 190.802C219.734 190.583 219.844 190.4 219.698 190.107ZM210.623 190.51C210.66 190.437 210.66 190.4 210.66 190.4C211.208 189.23 211.611 187.987 212.379 186.853L213.038 185.976C213.184 185.793 213.44 185.464 213.696 185.391C214.245 185.281 214.392 186.232 214.355 186.597L214.209 187.365C214.172 187.585 214.245 187.731 214.209 187.914C214.136 188.133 213.953 188.243 213.843 188.425L213.221 189.23C212.379 190.217 211.318 191.058 210.147 191.68C210.33 191.278 210.44 190.875 210.623 190.51Z" fill="white"/>
<path d="M166.401 1.72417C168.115 1.75215 169.314 13.3884 169.08 27.7144C168.846 42.0404 167.266 53.6311 165.553 53.6032C163.839 53.5752 162.64 41.939 162.874 27.613C163.108 13.287 164.687 1.69619 166.401 1.72417Z" fill="#CE0E0E"/>
<path d="M53.51 36.1391C54.8404 35.0592 63.2471 43.1997 72.287 54.3213C81.3267 65.4431 87.5764 75.3343 86.246 76.4141C84.9156 77.4938 76.5089 69.3532 67.4692 58.2316C58.4293 47.1101 52.1797 37.2188 53.51 36.1391Z" fill="#CE0E0E"/>
<path d="M261.245 201.744C261.952 200.183 273.115 203.704 286.179 209.607C299.246 215.511 309.263 221.562 308.556 223.122C307.852 224.683 296.687 221.162 283.623 215.259C270.558 209.355 260.538 203.304 261.245 201.744Z" fill="#CE0E0E"/>
<path d="M5.22366 127.691C5.57943 126.016 17.2383 127.069 31.2643 130.042C45.2907 133.016 56.3727 136.785 56.0169 138.461C55.6613 140.136 44.0023 139.084 29.9762 136.11C15.95 133.136 4.86792 129.367 5.22366 127.691Z" fill="#CE0E0E"/>
<path d="M316.096 103.974C316.658 105.593 306.128 110.705 292.579 115.393C279.03 120.082 267.59 122.57 267.03 120.952C266.468 119.333 276.998 114.221 290.547 109.533C304.096 104.845 315.536 102.356 316.096 103.974Z" fill="#CE0E0E"/>
<path d="M198.755 258.726C200.366 258.139 205.643 268.582 210.541 282.049C215.44 295.513 218.105 306.904 216.494 307.488C214.883 308.075 209.607 297.633 204.708 284.166C199.809 270.699 197.144 259.311 198.755 258.726Z" fill="#CE0E0E"/>
<path d="M312.614 164.508C312.579 165.788 303.863 166.578 293.151 166.273C282.44 165.968 273.784 164.683 273.822 163.404C273.857 162.124 282.57 161.334 293.283 161.639C303.996 161.944 312.652 163.229 312.614 164.508Z" fill="black"/>
<path d="M267.483 267.091C266.593 268.013 259.614 262.739 251.892 255.313C244.172 247.886 238.633 241.118 239.522 240.196C240.41 239.274 247.389 244.547 255.111 251.974C262.832 259.4 268.37 266.167 267.483 267.091Z" fill="black"/>
<path d="M110.426 21.9933C111.609 21.5013 115.906 29.1173 120.025 39.0041C124.143 48.8909 126.523 57.3044 125.34 57.7963C124.157 58.2882 119.86 50.6723 115.742 40.7855C111.624 30.8987 109.244 22.4852 110.426 21.9933Z" fill="black"/>
<path d="M30.5027 85.6868C31.1792 84.5996 39.1061 88.3007 48.2079 93.9538C57.3101 99.6066 64.1407 105.071 63.4645 106.158C62.7881 107.245 54.8614 103.544 45.7593 97.8908C36.6572 92.238 29.8265 86.774 30.5027 85.6868Z" fill="black"/>
</g>
</g>
<defs>
<clipPath id="clip0_28_1361">
<rect width="317.571" height="324.03" fill="white" transform="translate(0.355957 0.530273)"/>
</clipPath>
</defs>
</svg>
