<svg width="169" height="52" viewBox="0 0 169 52" fill="none" xmlns="http://www.w3.org/2000/svg">
<mask id="mask0_28_1332" style="mask-type:luminance" maskUnits="userSpaceOnUse" x="0" y="0" width="169" height="52">
<path d="M169 0H0V52H169V0Z" fill="white"/>
</mask>
<g mask="url(#mask0_28_1332)">
<path d="M8.03113 25.1687C6.49115 25.6144 5.23188 25.7416 4.25335 25.5507C3.27482 25.3596 2.51287 25.0412 1.96746 24.5957C1.3258 24.0862 0.828513 23.4495 0.475601 22.6854C0.154772 21.8576 0.0184202 21.0539 0.0665445 20.2738C0.114669 19.4939 0.291126 18.7536 0.595912 18.0532C0.900699 17.3528 1.30174 16.6922 1.79902 16.0714C2.2963 15.4506 2.8337 14.8855 3.41118 14.3761C4.72658 13.1663 6.33072 12.068 8.22361 11.0811C9.63527 10.2852 11.3116 9.50516 13.2526 8.7411C15.1936 7.97703 17.263 7.26867 19.4607 6.61602C21.6582 5.96338 23.9282 5.39032 26.2702 4.89685C28.6123 4.4034 30.9224 4.03728 33.2002 3.7985C35.4781 3.55973 37.6516 3.47219 39.721 3.53586C41.7903 3.59953 43.6591 3.85422 45.3276 4.29992C45.4558 4.17259 45.5681 4.0532 45.6643 3.94176C45.7607 3.83034 45.8889 3.71095 46.0493 3.58361C46.7231 2.78769 47.3808 2.10321 48.0224 1.53017C48.5679 1.05262 49.1614 0.678544 49.803 0.407936C50.4446 0.137328 51.0061 0.161205 51.4873 0.479567C51.9046 0.766094 52.1532 1.12425 52.2333 1.55404C52.3136 1.98383 52.2653 2.46138 52.089 2.98669C51.9125 3.51197 51.6318 4.0532 51.2468 4.61034C50.8618 5.16746 50.4287 5.70072 49.9475 6.2101C51.0061 6.815 52.1049 7.64273 53.2438 8.69334C54.3828 9.74394 55.3613 11.0651 56.1794 12.657C56.9976 14.2488 57.5189 16.1669 57.7435 18.4114C57.9681 20.6558 57.6954 23.2744 56.9254 26.2671C55.61 30.2146 53.4925 33.7803 50.573 36.9639C49.3218 38.333 47.838 39.678 46.1214 40.9993C44.4051 42.3204 42.3999 43.5223 40.106 44.6048C37.812 45.6872 35.2054 46.5945 32.2857 47.3267C29.3662 48.059 26.0937 48.5046 22.4684 48.6638C22.4364 48.8229 22.4203 48.9742 22.4203 49.1174C22.4203 49.2608 22.4042 49.3961 22.3722 49.5233C22.4042 49.8736 22.3881 50.192 22.3241 50.4786C22.2599 50.7332 22.1397 50.9561 21.9632 51.147C21.7866 51.3381 21.5219 51.4654 21.1691 51.5291C20.6879 51.5928 20.2466 51.378 19.8457 50.8845C19.4446 50.391 19.196 49.619 19.0997 48.5683C18.2976 48.4411 17.5196 48.2817 16.7657 48.0908C16.0117 47.8999 15.3139 47.6292 14.6723 47.2789C13.9023 46.8969 13.3248 46.4831 12.9398 46.0373C12.7794 45.8464 12.643 45.6393 12.5307 45.4166C12.4185 45.1937 12.3623 44.947 12.3623 44.6764C12.3623 44.4058 12.4425 44.1271 12.6029 43.8407C12.7633 43.5541 13.02 43.2517 13.3729 42.9334C13.6296 42.7105 13.9424 42.615 14.3113 42.6468C14.6803 42.6785 15.1134 42.7821 15.6107 42.9572C16.108 43.1322 16.6694 43.3472 17.2951 43.6018C17.9207 43.8565 18.6185 44.0953 19.3885 44.3182C19.4525 44.159 19.4927 44.0077 19.5088 43.8645C19.5249 43.7212 19.5648 43.5701 19.629 43.4109C19.8536 42.5831 20.2947 41.429 20.9524 39.9486C21.6101 38.4683 22.4523 36.773 23.479 34.8628C24.5058 32.9527 25.7008 30.8673 27.0643 28.6069C28.4278 26.3466 29.9438 24.0065 31.6121 21.587C33.2803 19.1675 35.069 16.7081 36.978 14.209C38.8869 11.7098 40.9 9.2664 43.0175 6.87867C40.6112 6.68766 37.7399 6.80703 34.4032 7.23683C31.0667 7.66662 27.6177 8.35906 24.0566 9.31415C21.6503 9.95088 19.3163 10.6831 17.0544 11.5108C14.7926 12.3386 12.6029 13.3096 10.4855 14.4239C8.65675 15.4108 7.22905 16.541 6.2024 17.8144C5.17575 19.0879 4.77472 20.2976 4.99928 21.4438C5.09555 22.0168 5.36022 22.3272 5.79334 22.375C6.22647 22.4227 6.69967 22.4069 7.21301 22.3272C7.72634 22.2477 8.20757 22.1919 8.65675 22.1602C9.1059 22.1282 9.41069 22.3034 9.57109 22.6854C9.73152 23.1312 9.74756 23.5132 9.61921 23.8316C9.49089 24.1499 9.2984 24.4046 9.04174 24.5957C8.75299 24.8184 8.41612 25.0095 8.03113 25.1687ZM47.9743 8.31131C47.1081 9.23455 45.9932 10.4841 44.6297 12.06C43.2662 13.6359 41.7824 15.4267 40.1781 17.4324C38.5741 19.4381 36.9217 21.5951 35.2213 23.9032C33.521 26.2113 31.8927 28.5671 30.3368 30.9708C28.7807 33.3744 27.3851 35.7781 26.15 38.1817C24.9148 40.5854 23.9604 42.8855 23.2865 45.0823C24.8266 45.2095 26.4948 45.1618 28.2915 44.9389C30.0881 44.7162 31.9249 44.3103 33.8017 43.7212C35.6786 43.1322 37.5313 42.3363 39.36 41.3336C41.1889 40.3306 42.9132 39.089 44.5335 37.6087C46.1536 36.1282 47.6213 34.3931 48.9368 32.4034C50.2522 30.4136 51.3269 28.1294 52.1612 25.5507C53.0274 22.8128 53.4444 20.4568 53.4124 18.483C53.3802 16.5092 53.0916 14.8378 52.5462 13.4688C52.0008 12.0998 51.2949 11.0094 50.4287 10.1976C49.5625 9.38577 48.7444 8.75701 47.9743 8.31131Z" fill="#EDEDF4"/>
<path d="M59.6784 43.6973C58.9083 43.5381 58.2908 43.2835 57.8257 42.9334C57.3604 42.5831 57.0075 42.1851 56.7668 41.7395C56.5263 41.2937 56.39 40.8081 56.3578 40.2829C56.3258 39.7576 56.3419 39.2243 56.4059 38.6831C56.5663 37.4415 56.9994 36.1044 57.7052 34.6718C58.6036 33.0799 59.5581 31.8304 60.5686 30.9231C61.5794 30.0158 62.5658 29.3472 63.5283 28.9174C64.4909 28.4876 65.4132 28.2568 66.2955 28.2249C67.1778 28.1931 67.9558 28.2568 68.6296 28.416C69.1108 28.5752 69.4958 28.8138 69.7845 29.1322C70.0413 29.387 70.2096 29.7531 70.2897 30.2306C70.37 30.7081 70.2337 31.313 69.8809 32.0452C69.207 33.2551 68.3889 34.3535 67.4265 35.3403C66.5923 36.1681 65.5736 36.9322 64.3705 37.6326C63.1675 38.333 61.7477 38.6673 60.1115 38.6353C59.8869 39.3677 59.871 40.0282 60.0634 40.6172C60.256 41.2062 60.7853 41.5803 61.6515 41.7395C62.3893 41.8987 63.1353 41.8827 63.8892 41.6918C64.6432 41.5006 65.341 41.262 65.9826 40.9754C66.7207 40.6251 67.4424 40.2113 68.1482 39.7338C68.6296 39.4154 69.1349 39.0014 69.6642 38.4921C70.1935 37.9827 70.7069 37.4574 71.2042 36.9162C71.7016 36.375 72.1667 35.8418 72.5998 35.3164C73.0329 34.7912 73.3939 34.3535 73.6827 34.0032C73.8431 33.7803 74.0355 33.5734 74.2601 33.3825C74.4847 33.1914 74.8216 33.0959 75.2706 33.0959C75.4952 33.0959 75.6556 33.1994 75.752 33.4063C75.8482 33.6132 75.8001 33.844 75.6075 34.0987C75.3187 34.5127 74.9257 35.03 74.4284 35.6507C73.9313 36.2716 73.3698 36.9241 72.7441 37.6087C72.1186 38.2931 71.4368 38.9935 70.6988 39.7099C69.961 40.4263 69.2231 41.0709 68.4851 41.644C67.7151 42.2488 66.865 42.7423 65.9345 43.1243C65.1325 43.4746 64.1941 43.7292 63.1192 43.8884C62.0445 44.0476 60.8976 43.9839 59.6784 43.6973ZM63.0952 33.4302C62.8386 33.7486 62.5819 34.0829 62.3251 34.433C62.1007 34.7513 61.86 35.1174 61.6034 35.5314C61.3466 35.9452 61.1061 36.375 60.8815 36.8207C61.6193 36.6616 62.3172 36.3831 62.9749 35.985C63.6326 35.587 64.2182 35.1971 64.7314 34.815C65.309 34.3693 65.8544 33.8917 66.3677 33.3825C66.5603 33.1596 66.8089 32.8809 67.1136 32.5468C67.4183 32.2125 67.6992 31.8702 67.9558 31.52C68.2124 31.1699 68.405 30.8434 68.5332 30.5411C68.6616 30.2385 68.6616 30.0397 68.5332 29.944C68.1482 29.6576 67.691 29.6338 67.1617 29.8724C66.6324 30.1113 66.1031 30.4456 65.5736 30.8754C65.0443 31.3052 64.5549 31.7746 64.1059 32.2841C63.6567 32.7935 63.3198 33.1754 63.0952 33.4302ZM70.5545 22.6854C71.0037 22.7491 71.3646 22.956 71.6374 23.3061C71.9101 23.6564 72.0142 24.0702 71.95 24.5478C71.918 25.0255 71.7336 25.4314 71.3967 25.7655C71.0597 26.0998 70.6829 26.2351 70.2657 26.1714C70.0413 26.1714 69.5839 26.0681 68.8942 25.8612C68.2045 25.6541 67.5147 25.4233 66.8248 25.1687C66.1351 24.914 65.5656 24.6752 65.1164 24.4523C64.6672 24.2294 64.571 24.1022 64.8276 24.0702C65.2768 24.0065 65.7821 23.8951 66.3436 23.7359C66.9051 23.5767 67.4664 23.4176 68.028 23.2584C68.5895 23.0992 69.0947 22.956 69.5439 22.8286C69.993 22.7014 70.3299 22.6537 70.5545 22.6854Z" fill="#EDEDF4"/>
<path d="M85.4345 22.5422C83.9267 24.6434 82.6514 26.5773 81.6087 28.3444C80.5659 30.1112 79.6437 31.7588 78.8414 33.2868C78.5206 33.9554 78.1837 34.6797 77.8309 35.4598C77.4779 36.2396 77.1972 36.9799 76.9887 37.6803C76.7802 38.3807 76.692 38.9536 76.724 39.3994C76.7562 39.8452 76.9967 40.068 77.4459 40.068C77.8629 40.068 78.3843 39.8213 79.01 39.3278C79.6355 38.8343 80.2612 38.2613 80.8867 37.6087C81.5125 36.956 82.1139 36.2795 82.6914 35.5791C83.269 34.8787 83.7341 34.3057 84.0871 33.8599C84.2475 33.6371 84.4399 33.4302 84.6645 33.239C84.8891 33.0481 85.2099 32.9527 85.6269 32.9527C85.8837 32.9527 86.0602 33.056 86.1564 33.2629C86.2526 33.47 86.2045 33.7008 86.0119 33.9554C85.5629 34.5603 84.9533 35.396 84.1833 36.4625C83.4133 37.529 82.5391 38.5797 81.5606 39.6144C80.582 40.6489 79.5393 41.5404 78.4324 42.2886C77.3256 43.0367 76.2267 43.4109 75.1358 43.4109C74.0772 43.4109 73.3553 43.0606 72.9703 42.3602C72.5853 41.6598 72.441 40.7763 72.5372 39.7099C72.6334 38.6434 72.9142 37.4734 73.3793 36.1998C73.8446 34.9264 74.366 33.7166 74.9434 32.5706C76.3231 29.6734 78.0555 26.4341 80.1408 22.8524C82.2262 19.271 84.7287 15.5222 87.6482 11.6063C89.7016 9.09125 91.6426 6.9423 93.4713 5.15947C94.2413 4.39539 95.0353 3.67113 95.8535 2.98665C96.6716 2.30215 97.4575 1.73706 98.2116 1.29135C98.9656 0.845646 99.6632 0.559119 100.305 0.431774C100.947 0.304428 101.492 0.399938 101.941 0.718301C102.551 1.16401 102.695 1.82461 102.374 2.70012C102.053 3.5756 101.436 4.60233 100.522 5.78028C99.6072 6.95821 98.4841 8.23963 97.1528 9.62451C95.8213 11.0094 94.4418 12.4341 93.0141 13.8985C91.5864 15.363 90.1988 16.8354 88.8513 18.3158C87.5039 19.7962 86.365 21.2049 85.4345 22.5422Z" fill="#EDEDF4"/>
<path d="M96.1759 32.9527C96.4325 32.9527 96.609 33.056 96.7052 33.263C96.8016 33.47 96.7533 33.7008 96.5609 33.9555C96.1117 34.5604 95.5021 35.3961 94.7323 36.4626C93.9623 37.529 93.0879 38.5797 92.1094 39.6144C91.1308 40.649 90.0883 41.5405 88.9814 42.2886C87.8744 43.0367 86.7757 43.4109 85.6848 43.4109C84.8186 43.4109 84.177 43.1561 83.7598 42.6468C83.3428 42.1373 83.0941 41.4768 83.014 40.6649C82.9337 39.8531 83.014 38.9458 83.2545 37.943C83.4952 36.9401 83.816 35.9292 84.2171 34.9105C84.6181 33.8917 85.0913 32.9128 85.6367 31.9736C86.1821 31.0345 86.7437 30.2466 87.3211 29.6099C87.5457 29.2913 87.8023 29.0207 88.0911 28.798C88.3477 28.6069 88.6204 28.4399 88.9092 28.2965C89.1978 28.1533 89.4866 28.1294 89.7754 28.2249C90.4171 28.4478 90.786 28.9014 90.8822 29.586C90.9786 30.2704 90.6898 31.1061 90.016 32.0931C89.6631 32.6024 89.262 33.3028 88.8128 34.1943C88.3638 35.0856 87.9949 35.9691 87.7061 36.8446C87.4173 37.7202 87.2569 38.4762 87.2249 39.1129C87.1927 39.7497 87.4495 40.0681 87.9949 40.0681C88.4119 40.0681 88.9333 39.8213 89.5588 39.3278C90.1845 38.8344 90.81 38.2614 91.4357 37.6087C92.0613 36.9561 92.6629 36.2795 93.2403 35.5791C93.8178 34.8787 94.2831 34.3057 94.6359 33.86C94.7963 33.6371 94.9889 33.4302 95.2135 33.2391C95.4381 33.0482 95.7589 32.9527 96.1759 32.9527ZM92.0853 23.927C92.5025 24.0545 92.8072 24.3251 92.9996 24.7389C93.1922 25.1527 93.2083 25.5825 93.0479 26.0282C92.8875 26.5057 92.6067 26.8639 92.2058 27.1028C91.8047 27.3414 91.3956 27.3813 90.9786 27.2221C90.5614 27.0947 90.2646 26.8162 90.0883 26.3864C89.9118 25.9566 89.9037 25.5188 90.0641 25.0732C90.2247 24.6274 90.4972 24.2852 90.8822 24.0464C91.2672 23.8077 91.6683 23.7679 92.0853 23.927Z" fill="#EDEDF4"/>
<path d="M96.8117 43.6973C96.0417 43.5381 95.4241 43.2834 94.959 42.9333C94.4937 42.583 94.1409 42.185 93.9002 41.7395C93.6595 41.2937 93.5231 40.8081 93.4911 40.2828C93.4591 39.7576 93.475 39.2243 93.5392 38.683C93.6996 37.4414 94.1327 36.1043 94.8386 34.6718C95.737 33.0799 96.6915 31.8304 97.702 30.9231C98.7125 30.0158 99.6992 29.3471 100.662 28.9173C101.624 28.4876 102.547 28.2568 103.429 28.2248C104.311 28.1931 105.089 28.2568 105.763 28.416C106.244 28.5751 106.629 28.8138 106.918 29.1321C107.174 29.387 107.343 29.753 107.423 30.2306C107.503 30.7081 107.367 31.313 107.014 32.0452C106.757 32.5546 106.469 32.9844 106.148 33.3347C105.891 33.6531 105.586 33.9077 105.233 34.0986C104.881 34.2897 104.496 34.3057 104.078 34.1464C103.918 34.0828 103.774 33.9872 103.645 33.86C103.389 33.6053 103.357 33.2868 103.549 32.9047C103.678 32.682 103.886 32.4193 104.175 32.117C104.463 31.8144 104.744 31.5199 105.017 31.2333C105.29 30.9469 105.498 30.6842 105.643 30.4456C105.787 30.2067 105.795 30.0396 105.667 29.944C105.282 29.6576 104.824 29.6337 104.295 29.8724C103.766 30.1112 103.236 30.4456 102.707 30.8753C102.178 31.3051 101.688 31.7746 101.239 32.284C100.79 32.7935 100.453 33.1753 100.229 33.4302C99.1377 34.831 98.3196 36.1043 97.7741 37.2505C97.5175 37.728 97.3249 38.2136 97.1967 38.7069C97.0683 39.2004 97.0202 39.6541 97.0524 40.0681C97.0844 40.4819 97.2369 40.84 97.5096 41.1424C97.7823 41.445 98.2073 41.644 98.7849 41.7395C99.5227 41.8986 100.269 41.8827 101.023 41.6917C101.776 41.5006 102.474 41.2619 103.116 40.9754C103.854 40.6251 104.576 40.2113 105.282 39.7337C105.763 39.4154 106.268 39.0014 106.798 38.4921C107.327 37.9826 107.84 37.4574 108.337 36.9162C108.835 36.375 109.3 35.8418 109.733 35.3164C110.166 34.7911 110.527 34.3534 110.816 34.0032C110.976 33.7803 111.169 33.5734 111.393 33.3824C111.618 33.1913 111.939 33.0959 112.356 33.0959C112.612 33.0959 112.789 33.1994 112.885 33.4063C112.982 33.6132 112.933 33.844 112.741 34.0986C112.452 34.5126 112.051 35.03 111.538 35.6507C111.025 36.2716 110.455 36.9241 109.829 37.6087C109.204 38.2931 108.53 38.9935 107.808 39.7099C107.086 40.4262 106.34 41.0708 105.57 41.644C104.832 42.2487 103.998 42.7422 103.068 43.1243C102.266 43.4746 101.327 43.7292 100.253 43.8884C99.1778 44.0475 98.0309 43.9838 96.8117 43.6973Z" fill="#EDEDF4"/>
<path d="M123.097 32.9527C123.354 32.9527 123.53 33.056 123.627 33.263C123.723 33.47 123.675 33.7008 123.482 33.9555C123.033 34.5604 122.424 35.3961 121.654 36.4626C120.884 37.529 120.009 38.5797 119.031 39.6144C118.052 40.649 117.01 41.5405 115.903 42.2886C114.796 43.0367 113.697 43.4109 112.606 43.4109C111.74 43.4109 111.098 43.1561 110.681 42.6468C110.264 42.1373 110.015 41.4768 109.935 40.6649C109.855 39.8531 109.935 38.9458 110.176 37.943C110.417 36.9401 110.737 35.9292 111.139 34.9105C111.539 33.8917 112.013 32.9128 112.558 31.9736C113.104 31.0345 113.665 30.2466 114.242 29.6099C114.467 29.2913 114.724 29.0207 115.012 28.798C115.269 28.6069 115.542 28.4399 115.831 28.2965C116.119 28.1533 116.408 28.1294 116.697 28.2249C117.338 28.4478 117.707 28.9014 117.804 29.586C117.9 30.2704 117.611 31.1061 116.937 32.0931C116.585 32.6024 116.183 33.3028 115.734 34.1943C115.285 35.0856 114.916 35.9691 114.627 36.8446C114.339 37.7202 114.178 38.4762 114.146 39.1129C114.114 39.7497 114.371 40.0681 114.916 40.0681C115.333 40.0681 115.855 39.8213 116.48 39.3278C117.106 38.8344 117.731 38.2614 118.357 37.6087C118.983 36.9561 119.584 36.2795 120.162 35.5791C120.739 34.8787 121.204 34.3057 121.557 33.86C121.718 33.6371 121.91 33.4302 122.135 33.2391C122.359 33.0482 122.68 32.9527 123.097 32.9527ZM119.007 23.927C119.424 24.0545 119.729 24.3251 119.921 24.7389C120.114 25.1527 120.13 25.5825 119.969 26.0282C119.809 26.5057 119.528 26.8639 119.127 27.1028C118.726 27.3414 118.317 27.3813 117.9 27.2221C117.483 27.0947 117.186 26.8162 117.01 26.3864C116.833 25.9566 116.825 25.5188 116.985 25.0732C117.146 24.6274 117.419 24.2852 117.804 24.0464C118.189 23.8077 118.59 23.7679 119.007 23.927Z" fill="#EDEDF4"/>
<path d="M123.637 43.6973C122.866 43.5381 122.249 43.2834 121.784 42.9333C121.318 42.583 120.965 42.185 120.725 41.7395C120.484 41.2937 120.348 40.8081 120.316 40.2828C120.284 39.7576 120.3 39.2243 120.364 38.683C120.524 37.4414 120.958 36.1043 121.663 34.6718C122.562 33.0799 123.516 31.8304 124.527 30.9231C125.537 30.0158 126.524 29.3471 127.486 28.9173C128.449 28.4876 129.371 28.2568 130.254 28.2248C131.136 28.1931 131.914 28.2568 132.588 28.416C133.069 28.5751 133.454 28.8138 133.743 29.1321C133.999 29.387 134.168 29.753 134.248 30.2306C134.328 30.7081 134.192 31.313 133.839 32.0452C133.165 33.255 132.347 34.3535 131.384 35.3402C130.55 36.1681 129.532 36.9322 128.329 37.6325C127.125 38.3329 125.706 38.6673 124.07 38.6353C123.845 39.3677 123.829 40.0282 124.022 40.6172C124.214 41.2061 124.743 41.5803 125.609 41.7395C126.347 41.8986 127.093 41.8827 127.847 41.6917C128.601 41.5006 129.299 41.2619 129.941 40.9754C130.679 40.6251 131.401 40.2113 132.106 39.7337C132.588 39.4154 133.093 39.0014 133.622 38.4921C134.152 37.9826 134.665 37.4574 135.162 36.9162C135.66 36.375 136.125 35.8418 136.558 35.3164C136.991 34.7911 137.352 34.3534 137.641 34.0032C137.801 33.7803 137.994 33.5734 138.218 33.3824C138.443 33.1913 138.78 33.0959 139.229 33.0959C139.453 33.0959 139.614 33.1994 139.71 33.4063C139.806 33.6132 139.758 33.844 139.566 34.0986C139.277 34.5126 138.884 35.03 138.387 35.6507C137.889 36.2716 137.328 36.9241 136.702 37.6087C136.077 38.2931 135.395 38.9935 134.657 39.7099C133.919 40.4262 133.181 41.0708 132.443 41.644C131.673 42.2487 130.823 42.7422 129.893 43.1243C129.09 43.4746 128.152 43.7292 127.077 43.8884C126.003 44.0475 124.856 43.9838 123.637 43.6973ZM127.053 33.4302C126.797 33.7485 126.54 34.0828 126.283 34.4329C126.059 34.7513 125.818 35.1174 125.561 35.5314C125.305 35.9452 125.064 36.375 124.84 36.8207C125.577 36.6615 126.275 36.383 126.933 35.985C127.591 35.587 128.176 35.197 128.69 34.815C129.267 34.3692 129.812 33.8917 130.326 33.3824C130.518 33.1596 130.767 32.8809 131.072 32.5467C131.376 32.2124 131.657 31.8702 131.914 31.5199C132.171 31.1698 132.363 30.8434 132.491 30.541C132.62 30.2385 132.62 30.0396 132.491 29.944C132.106 29.6576 131.649 29.6337 131.12 29.8724C130.59 30.1112 130.061 30.4456 129.532 30.8753C129.002 31.3051 128.513 31.7746 128.064 32.284C127.615 32.7935 127.278 33.1753 127.053 33.4302Z" fill="#EDEDF4"/>
<path d="M147.805 43.4109C146.682 43.4109 145.928 42.989 145.543 42.1454C145.158 41.3016 145.046 40.275 145.206 39.0651C144.372 40.1476 143.482 41.0947 142.535 41.9066C141.589 42.7184 140.65 43.0926 139.72 43.0288C139.624 42.9969 139.535 42.9811 139.455 42.9811C139.375 42.9811 139.303 42.9651 139.238 42.9334C138.468 42.7742 137.915 42.4638 137.578 42.002C137.241 41.5405 137.017 41.047 136.905 40.5217C136.792 39.9965 136.76 39.4949 136.808 39.0174C136.856 38.5399 136.896 38.2215 136.929 38.0624V37.9669H136.977C137.009 37.6803 137.057 37.4415 137.121 37.2505C137.153 37.1231 137.185 37.0277 137.217 36.9639C137.602 35.5951 138.148 34.242 138.853 32.9048C139.559 31.5677 140.281 30.4695 141.019 29.6099C141.276 29.2914 141.549 29.0207 141.837 28.7981C142.094 28.6069 142.359 28.4399 142.631 28.2965C142.904 28.1533 143.185 28.1294 143.473 28.2249C144.115 28.4797 144.484 28.9413 144.58 29.6099C144.677 30.2783 144.388 31.1221 143.714 32.1409C143.522 32.4273 143.289 32.8014 143.016 33.263C142.744 33.7247 142.463 34.2261 142.174 34.7673C141.885 35.3085 141.605 35.8497 141.332 36.391C141.059 36.9322 140.843 37.4415 140.682 37.9192C140.618 38.0783 140.562 38.2454 140.514 38.4206C140.466 38.5957 140.41 38.7628 140.345 38.9219C140.185 39.3677 140.105 39.7178 140.105 39.9724C140.105 40.2273 140.137 40.4182 140.201 40.5456C140.265 40.673 140.345 40.7685 140.442 40.8322C140.827 40.9277 141.252 40.8081 141.717 40.474C142.182 40.1397 142.663 39.6939 143.161 39.1367C143.658 38.5797 144.139 37.9669 144.604 37.2983C145.07 36.6296 145.487 35.9929 145.856 35.388C146.225 34.7833 146.529 34.2578 146.77 33.8123C147.011 33.3665 147.163 33.0959 147.227 33.0004C147.58 32.3637 147.949 31.7507 148.334 31.1618C148.719 30.5728 149.104 30.0555 149.489 29.6099C149.714 29.2914 149.97 29.0207 150.259 28.7981C150.516 28.6069 150.78 28.4399 151.053 28.2965C151.326 28.1533 151.607 28.1294 151.895 28.2249C152.537 28.4797 152.906 28.9413 153.002 29.6099C153.098 30.2783 152.81 31.1221 152.136 32.1409C151.911 32.4592 151.655 32.889 151.366 33.4302C151.077 33.9714 150.805 34.5365 150.548 35.1255C150.291 35.7144 150.059 36.3034 149.85 36.8924C149.641 37.4813 149.505 38.0146 149.441 38.4922C149.377 38.9697 149.393 39.3596 149.489 39.6622C149.585 39.9645 149.81 40.0999 150.163 40.0681C150.58 40.0681 151.101 39.8292 151.727 39.3517C152.353 38.8742 152.978 38.301 153.604 37.6326C154.229 36.9639 154.823 36.2795 155.384 35.5791C155.946 34.8787 156.403 34.3058 156.756 33.86C156.916 33.6371 157.109 33.4302 157.333 33.2391C157.558 33.0482 157.895 32.9527 158.344 32.9527C158.569 32.9527 158.729 33.0561 158.825 33.263C158.921 33.4701 158.873 33.7008 158.681 33.9555C158.232 34.5604 157.622 35.3961 156.852 36.4626C156.082 37.529 155.208 38.5797 154.229 39.6144C153.251 40.649 152.208 41.5405 151.101 42.2886C149.994 43.0367 148.896 43.4109 147.805 43.4109Z" fill="#EDEDF4"/>
<path d="M160.808 37.728C160.776 38.4284 160.8 39.1288 160.88 39.8292C160.96 40.5296 161.049 41.4051 161.145 42.4556C161.177 42.8696 161.145 43.1801 161.049 43.387C160.953 43.5939 160.824 43.761 160.664 43.8884C160.503 44.0158 160.311 44.0953 160.086 44.127C159.669 44.2227 159.308 44.1351 159.003 43.8645C158.699 43.5939 158.434 43.2436 158.209 42.8138C157.985 42.384 157.808 41.8905 157.68 41.3335C157.552 40.7763 157.455 40.259 157.391 39.7815C156.75 40.3864 156.284 40.9594 155.996 41.5006C155.707 42.0418 155.53 42.5036 155.466 42.8854C155.402 43.1403 155.274 43.3393 155.081 43.4825C154.889 43.6257 154.664 43.6815 154.408 43.6495H154.263C153.974 43.6178 153.734 43.4904 153.541 43.2675C153.349 43.0448 153.285 42.7742 153.349 42.4556C153.445 42.0101 153.63 41.5483 153.902 41.0708C154.175 40.5933 154.488 40.1318 154.841 39.686C155.193 39.2402 155.571 38.8184 155.972 38.4205C156.373 38.0225 156.75 37.6803 157.102 37.3937H157.151C157.087 36.0566 157.159 34.7116 157.367 33.3586C157.576 32.0055 157.872 30.8195 158.257 29.8008C158.418 29.4187 158.578 29.0686 158.739 28.7503C158.899 28.4955 159.084 28.2568 159.292 28.0339C159.501 27.811 159.765 27.6836 160.086 27.6519C160.76 27.6519 161.257 27.9623 161.578 28.583C161.899 29.2039 161.915 30.1032 161.626 31.2813C161.562 31.6314 161.474 32.0771 161.362 32.6183C161.249 33.1596 161.161 33.7485 161.097 34.3852C162.252 33.0481 163.182 31.7588 163.888 30.5172C164.594 29.2755 165.107 28.3363 165.428 27.6996C165.556 27.445 165.757 27.2619 166.03 27.1505C166.302 27.039 166.567 27.031 166.824 27.1266H166.872C167.128 27.2538 167.321 27.445 167.449 27.6996C167.578 27.9542 167.594 28.2248 167.497 28.5114C167.208 29.4347 166.816 30.3181 166.318 31.1617C165.821 32.0055 165.268 32.8174 164.658 33.5972C164.049 34.3773 163.407 35.1016 162.733 35.77C162.059 36.4387 161.418 37.0594 160.808 37.6325V37.728Z" fill="#EDEDF4"/>
<path d="M162.964 20.6295C160.889 20.8268 158.945 20.9217 157.13 20.9143C155.316 20.9068 153.813 20.7979 152.621 20.5871C151.43 20.3766 150.523 20.167 149.902 19.9587C149.281 19.7503 148.634 19.4391 147.962 19.0247C147.29 18.6104 146.696 18.0935 146.18 17.474C145.664 16.8546 145.278 16.2099 145.021 15.5401C144.765 14.8702 139.218 14.7703 128.38 15.2404C117.543 15.7105 111.839 15.893 111.269 15.7878C110.699 15.6825 110.182 15.5003 109.716 15.2412C109.251 14.9821 108.915 14.6977 108.709 14.3882C108.503 14.0787 108.375 13.6923 108.325 13.2291C108.275 12.7659 108.302 12.3802 108.407 12.0719C108.512 11.7637 108.721 11.4558 109.034 11.1485C109.346 10.8411 109.839 10.5601 110.515 10.3057C111.19 10.0512 117.047 10.2552 128.087 10.9178C139.127 11.5803 144.805 11.5264 145.119 10.756C145.433 9.9856 145.825 9.34412 146.293 8.83157C146.762 8.31904 147.23 7.90939 147.698 7.60261C148.166 7.29586 148.815 6.98985 149.646 6.68458C150.477 6.3793 151.645 6.12684 153.149 5.92721C154.653 5.7276 157.194 5.73799 160.77 5.95841C164.346 6.17884 166.133 6.572 166.131 7.1379C166.129 7.7038 164.053 8.05542 159.905 8.19278C155.757 8.33013 153.682 8.63032 153.68 9.09333C153.678 9.55633 153.833 9.81418 154.143 9.8669C154.454 9.91962 156.528 10.031 160.363 10.201C164.199 10.3711 166.116 10.7133 166.114 11.2278C166.112 11.7422 164.037 12.0681 159.888 12.2055C155.74 12.3428 153.665 12.6688 153.663 13.1832C153.661 13.6977 155.733 14.0405 159.88 14.2119C164.027 14.3832 166.099 14.7518 166.097 15.3177C166.095 15.8836 164.019 16.2352 159.871 16.3726C155.723 16.5099 153.648 16.8358 153.646 17.3503C153.644 17.8647 155.716 18.2076 159.863 18.3789C164.01 18.5502 166.082 18.9188 166.079 19.4847C166.077 20.0505 165.039 20.4322 162.964 20.6295ZM144.64 13.7636C144.64 13.7122 144.64 13.6607 144.64 13.6093C143.37 13.6041 142.1 13.5989 140.83 13.5937C138.289 13.5833 132.872 13.6383 124.576 13.7587C116.28 13.879 111.848 13.8095 111.279 13.5499C110.71 13.2903 110.27 12.9284 109.961 12.4641C109.807 12.232 109.652 11.9998 109.497 11.7677C109.522 12.0508 109.547 12.3338 109.572 12.6169C109.621 13.183 109.801 13.621 110.111 13.9309C110.42 14.2409 110.834 14.4998 111.352 14.7077C111.869 14.9156 117.547 14.836 128.384 14.4688C139.22 14.1016 144.639 13.8665 144.64 13.7636Z" fill="#EF4135"/>
</g>
</svg>
