<svg width="169" height="52" viewBox="0 0 169 52" fill="none" xmlns="http://www.w3.org/2000/svg">
<g clip-path="url(#clip0_179_57)">
<mask id="mask0_179_57" style="mask-type:luminance" maskUnits="userSpaceOnUse" x="0" y="0" width="169" height="52">
<path d="M169 0H0V52H169V0Z" fill="white"/>
</mask>
<g mask="url(#mask0_179_57)">
<path d="M8.03162 25.1684C6.49163 25.6142 5.23237 25.7414 4.25384 25.5505C3.27531 25.3593 2.51336 25.041 1.96795 24.5954C1.32629 24.086 0.829001 23.4493 0.476089 22.6852C0.155261 21.8574 0.0189085 21.0536 0.0670328 20.2735C0.115157 19.4936 0.291614 18.7534 0.596401 18.053C0.901187 17.3526 1.30222 16.692 1.79951 16.0712C2.29679 15.4503 2.83419 14.8853 3.41167 14.3759C4.72706 13.1661 6.33121 12.0677 8.2241 11.0808C9.63576 10.2849 11.3121 9.50492 13.2531 8.74085C15.1941 7.97679 17.2635 7.26842 19.4612 6.61578C21.6587 5.96313 23.9287 5.39008 26.2707 4.8966C28.6128 4.40315 30.9228 4.03704 33.2007 3.79826C35.4786 3.55948 37.6521 3.47195 39.7214 3.53562C41.7908 3.59928 43.6596 3.85398 45.3281 4.29968C45.4563 4.17234 45.5686 4.05295 45.6648 3.94151C45.7612 3.83009 45.8894 3.7107 46.0498 3.58337C46.7236 2.78745 47.3813 2.10297 48.0229 1.52992C48.5683 1.05238 49.1619 0.6783 49.8035 0.407692C50.4451 0.137083 51.0066 0.160961 51.4878 0.479323C51.905 0.76585 52.1537 1.12401 52.2338 1.5538C52.3141 1.98358 52.2658 2.46114 52.0895 2.98644C51.913 3.51173 51.6323 4.05295 51.2473 4.61009C50.8623 5.16722 50.4292 5.70047 49.948 6.20986C51.0066 6.81475 52.1054 7.64249 53.2443 8.6931C54.3833 9.74369 55.3618 11.0649 56.1799 12.6567C56.998 14.2485 57.5194 16.1667 57.744 18.4111C57.9686 20.6556 57.6959 23.2741 56.9259 26.2668C55.6105 30.2144 53.493 33.7801 50.5735 36.9637C49.3223 38.3327 47.8385 39.6777 46.1219 40.999C44.4056 42.3201 42.4004 43.5221 40.1065 44.6045C37.8125 45.687 35.2059 46.5943 32.2862 47.3264C29.3667 48.0588 26.0942 48.5043 22.4689 48.6635C22.4369 48.8227 22.4208 48.974 22.4208 49.1172C22.4208 49.2606 22.4047 49.3959 22.3727 49.5231C22.4047 49.8734 22.3886 50.1917 22.3246 50.4783C22.2604 50.733 22.1401 50.9558 21.9636 51.1468C21.7871 51.3379 21.5224 51.4651 21.1696 51.5288C20.6884 51.5925 20.2471 51.3777 19.8462 50.8842C19.4451 50.3907 19.1965 49.6187 19.1002 48.5681C18.2981 48.4408 17.5201 48.2815 16.7662 48.0905C16.0122 47.8996 15.3144 47.629 14.6728 47.2787C13.9028 46.8967 13.3253 46.4828 12.9403 46.0371C12.7799 45.8462 12.6435 45.6391 12.5312 45.4164C12.419 45.1935 12.3628 44.9467 12.3628 44.6761C12.3628 44.4055 12.443 44.1268 12.6034 43.8404C12.7638 43.5538 13.0205 43.2515 13.3734 42.9331C13.6301 42.7103 13.9429 42.6148 14.3118 42.6465C14.6808 42.6783 15.1139 42.7819 15.6112 42.957C16.1085 43.132 16.6699 43.3469 17.2956 43.6016C17.9212 43.8562 18.619 44.0951 19.389 44.3179C19.453 44.1588 19.4932 44.0075 19.5093 43.8643C19.5254 43.7209 19.5653 43.5698 19.6295 43.4106C19.8541 42.5828 20.2952 41.4288 20.9529 39.9483C21.6106 38.468 22.4528 36.7728 23.4794 34.8625C24.5063 32.9524 25.7012 30.867 27.0648 28.6067C28.4283 26.3463 29.9443 24.0063 31.6126 21.5868C33.2808 19.1672 35.0695 16.7079 36.9785 14.2087C38.8874 11.7096 40.9005 9.26616 43.018 6.87842C40.6117 6.68742 37.7403 6.80679 34.4036 7.23659C31.0672 7.66637 27.6182 8.35882 24.0571 9.31391C21.6508 9.95064 19.3168 10.6829 17.0549 11.5106C14.7931 12.3384 12.6034 13.3094 10.4859 14.4236C8.65723 15.4106 7.22954 16.5407 6.20289 17.8142C5.17624 19.0877 4.7752 20.2974 4.99977 21.4436C5.09603 22.0165 5.36071 22.327 5.79382 22.3747C6.22696 22.4225 6.70016 22.4067 7.21349 22.327C7.72683 22.2475 8.20806 22.1917 8.65723 22.1599C9.10639 22.128 9.41118 22.3031 9.57158 22.6852C9.73201 23.1309 9.74805 23.513 9.6197 23.8313C9.49138 24.1497 9.29889 24.4043 9.04223 24.5954C8.75348 24.8181 8.41661 25.0092 8.03162 25.1684ZM47.9748 8.31107C47.1086 9.2343 45.9937 10.4839 44.6302 12.0598C43.2666 13.6357 41.7829 15.4265 40.1786 17.4322C38.5746 19.4378 36.9222 21.5948 35.2218 23.9029C33.5215 26.211 31.8932 28.5668 30.3373 30.9706C28.7811 33.3741 27.3856 35.7779 26.1505 38.1815C24.9153 40.5852 23.9608 42.8852 23.287 45.0821C24.8271 45.2093 26.4953 45.1615 28.292 44.9387C30.0886 44.716 31.9254 44.3101 33.8022 43.7209C35.6791 43.132 37.5318 42.3361 39.3605 41.3333C41.1893 40.3304 42.9136 39.0888 44.534 37.6085C46.1541 36.128 47.6218 34.3929 48.9373 32.4031C50.2527 30.4134 51.3274 28.1292 52.1617 25.5505C53.0279 22.8126 53.4449 20.4566 53.4129 18.4828C53.3807 16.5089 53.0921 14.8375 52.5467 13.4686C52.0012 12.0996 51.2954 11.0092 50.4292 10.1974C49.563 9.38553 48.7449 8.75677 47.9748 8.31107Z" fill="#0C1013"/>
<path d="M59.6784 43.6972C58.9083 43.538 58.2908 43.2834 57.8257 42.9333C57.3604 42.583 57.0075 42.1849 56.7668 41.7394C56.5263 41.2936 56.39 40.808 56.3578 40.2828C56.3258 39.7575 56.3419 39.2242 56.4059 38.683C56.5663 37.4413 56.9994 36.1043 57.7052 34.6717C58.6036 33.0798 59.5581 31.8303 60.5686 30.923C61.5794 30.0157 62.5658 29.347 63.5283 28.9173C64.4909 28.4875 65.4132 28.2567 66.2955 28.2248C67.1778 28.193 67.9558 28.2567 68.6296 28.4159C69.1108 28.5751 69.4958 28.8137 69.7845 29.1321C70.0413 29.3869 70.2096 29.753 70.2897 30.2305C70.37 30.708 70.2337 31.3129 69.8809 32.0451C69.207 33.2549 68.3889 34.3534 67.4265 35.3402C66.5923 36.168 65.5736 36.9321 64.3705 37.6325C63.1675 38.3329 61.7477 38.6672 60.1115 38.6352C59.8869 39.3676 59.871 40.0281 60.0634 40.6171C60.256 41.206 60.7853 41.5802 61.6515 41.7394C62.3893 41.8985 63.1353 41.8826 63.8892 41.6916C64.6432 41.5005 65.341 41.2619 65.9826 40.9753C66.7207 40.625 67.4424 40.2112 68.1482 39.7336C68.6296 39.4153 69.1349 39.0013 69.6642 38.492C70.1935 37.9826 70.7069 37.4573 71.2042 36.9161C71.7016 36.3749 72.1667 35.8417 72.5998 35.3163C73.0329 34.791 73.3939 34.3534 73.6827 34.0031C73.8431 33.7802 74.0355 33.5733 74.2601 33.3824C74.4847 33.1912 74.8216 33.0958 75.2706 33.0958C75.4952 33.0958 75.6556 33.1993 75.752 33.4062C75.8482 33.6131 75.8001 33.8439 75.6075 34.0985C75.3187 34.5125 74.9257 35.0299 74.4284 35.6506C73.9313 36.2715 73.3698 36.924 72.7441 37.6086C72.1186 38.293 71.4368 38.9934 70.6988 39.7098C69.961 40.4262 69.2231 41.0707 68.4851 41.6439C67.7151 42.2486 66.865 42.7421 65.9345 43.1242C65.1325 43.4745 64.1941 43.7291 63.1192 43.8883C62.0445 44.0475 60.8976 43.9838 59.6784 43.6972ZM63.0952 33.4301C62.8386 33.7484 62.5819 34.0827 62.3251 34.4329C62.1007 34.7512 61.86 35.1173 61.6034 35.5313C61.3466 35.9451 61.1061 36.3749 60.8815 36.8206C61.6193 36.6615 62.3172 36.3829 62.9749 35.9849C63.6326 35.5869 64.2182 35.197 64.7314 34.8149C65.309 34.3691 65.8544 33.8916 66.3677 33.3824C66.5603 33.1595 66.8089 32.8808 67.1136 32.5467C67.4183 32.2123 67.6992 31.8701 67.9558 31.5198C68.2124 31.1697 68.405 30.8433 68.5332 30.5409C68.6616 30.2384 68.6616 30.0395 68.5332 29.9439C68.1482 29.6575 67.691 29.6336 67.1617 29.8723C66.6324 30.1111 66.1031 30.4455 65.5736 30.8753C65.0443 31.305 64.5549 31.7745 64.1059 32.2839C63.6567 32.7934 63.3198 33.1753 63.0952 33.4301ZM70.5545 22.6853C71.0037 22.749 71.3646 22.9559 71.6374 23.306C71.9101 23.6563 72.0142 24.0701 71.95 24.5476C71.918 25.0253 71.7336 25.4313 71.3967 25.7654C71.0597 26.0997 70.6829 26.235 70.2657 26.1713C70.0413 26.1713 69.5839 26.0679 68.8942 25.861C68.2045 25.6539 67.5147 25.4232 66.8248 25.1685C66.1351 24.9139 65.5656 24.675 65.1164 24.4522C64.6672 24.2293 64.571 24.1021 64.8276 24.0701C65.2768 24.0064 65.7821 23.895 66.3436 23.7358C66.9051 23.5766 67.4664 23.4175 68.028 23.2583C68.5895 23.0991 69.0947 22.9559 69.5439 22.8285C69.993 22.7013 70.3299 22.6535 70.5545 22.6853Z" fill="#0C1013"/>
<path d="M85.435 22.5419C83.9272 24.6431 82.6519 26.5771 81.6092 28.3441C80.5664 30.111 79.6442 31.7585 78.8419 33.2865C78.5211 33.9552 78.1842 34.6794 77.8314 35.4595C77.4784 36.2394 77.1977 36.9796 76.9892 37.68C76.7807 38.3804 76.6925 38.9534 76.7245 39.3992C76.7567 39.8449 76.9972 40.0678 77.4464 40.0678C77.8634 40.0678 78.3848 39.8211 79.0105 39.3276C79.636 38.8341 80.2617 38.2611 80.8872 37.6084C81.513 36.9558 82.1144 36.2792 82.6918 35.5788C83.2695 34.8784 83.7346 34.3055 84.0876 33.8597C84.248 33.6368 84.4404 33.4299 84.665 33.2388C84.8896 33.0479 85.2104 32.9524 85.6274 32.9524C85.8842 32.9524 86.0607 33.0558 86.1569 33.2627C86.2531 33.4698 86.205 33.7005 86.0124 33.9552C85.5634 34.5601 84.9538 35.3958 84.1838 36.4623C83.4138 37.5287 82.5396 38.5794 81.5611 39.6142C80.5825 40.6487 79.5398 41.5402 78.4329 42.2883C77.3261 43.0364 76.2272 43.4106 75.1363 43.4106C74.0777 43.4106 73.3558 43.0603 72.9708 42.3599C72.5858 41.6595 72.4414 40.7761 72.5376 39.7096C72.6339 38.6431 72.9147 37.4731 73.3798 36.1996C73.8451 34.9262 74.3665 33.7163 74.9439 32.5704C76.3236 29.6731 78.056 26.4339 80.1413 22.8522C82.2267 19.2707 84.7292 15.5219 87.6487 11.6061C89.7021 9.09101 91.6431 6.94205 93.4717 5.15923C94.2418 4.39514 95.0358 3.67088 95.854 2.9864C96.6721 2.30191 97.458 1.73682 98.2121 1.29111C98.9661 0.845402 99.6637 0.558875 100.306 0.43153C100.947 0.304184 101.493 0.399693 101.942 0.718057C102.551 1.16377 102.696 1.82437 102.375 2.69987C102.054 3.57536 101.436 4.60209 100.522 5.78004C99.6077 6.95797 98.4846 8.23939 97.1533 9.62426C95.8218 11.0091 94.4423 12.4338 93.0146 13.8983C91.5868 15.3628 90.1993 16.8352 88.8518 18.3156C87.5044 19.796 86.3654 21.2047 85.435 22.5419Z" fill="#0C1013"/>
<path d="M96.1764 32.9522C96.433 32.9522 96.6095 33.0556 96.7057 33.2625C96.8021 33.4696 96.7538 33.7003 96.5614 33.955C96.1122 34.5599 95.5026 35.3956 94.7328 36.4621C93.9628 37.5285 93.0884 38.5792 92.1099 39.614C91.1313 40.6485 90.0888 41.54 88.9819 42.2881C87.8749 43.0362 86.7762 43.4104 85.6853 43.4104C84.8191 43.4104 84.1775 43.1556 83.7603 42.6463C83.3433 42.1368 83.0946 41.4763 83.0145 40.6644C82.9342 39.8526 83.0145 38.9453 83.255 37.9425C83.4957 36.9396 83.8165 35.9287 84.2176 34.91C84.6185 33.8913 85.0918 32.9124 85.6372 31.9731C86.1826 31.0341 86.7441 30.2461 87.3216 29.6094C87.5462 29.2909 87.8028 29.0202 88.0916 28.7976C88.3482 28.6064 88.6209 28.4394 88.9097 28.296C89.1983 28.1528 89.4871 28.1289 89.7759 28.2244C90.4176 28.4473 90.7865 28.9009 90.8827 29.5855C90.9791 30.27 90.6903 31.1057 90.0164 32.0926C89.6636 32.6019 89.2625 33.3023 88.8133 34.1938C88.3643 35.0851 87.9954 35.9686 87.7066 36.8441C87.4178 37.7197 87.2574 38.4757 87.2254 39.1124C87.1932 39.7493 87.45 40.0676 87.9954 40.0676C88.4124 40.0676 88.9338 39.8209 89.5593 39.3274C90.185 38.8339 90.8105 38.2609 91.4362 37.6082C92.0618 36.9556 92.6634 36.279 93.2408 35.5786C93.8183 34.8782 94.2836 34.3053 94.6364 33.8595C94.7968 33.6366 94.9894 33.4297 95.214 33.2386C95.4386 33.0477 95.7594 32.9522 96.1764 32.9522ZM92.0858 23.9265C92.503 24.054 92.8077 24.3246 93.0001 24.7384C93.1927 25.1522 93.2088 25.582 93.0484 26.0277C92.888 26.5053 92.6072 26.8634 92.2063 27.1023C91.8051 27.341 91.3961 27.3808 90.9791 27.2216C90.5619 27.0942 90.2651 26.8157 90.0888 26.3859C89.9123 25.9561 89.9041 25.5183 90.0645 25.0727C90.2251 24.6269 90.4977 24.2847 90.8827 24.0459C91.2677 23.8072 91.6688 23.7674 92.0858 23.9265Z" fill="#0C1013"/>
<path d="M96.8122 43.6971C96.0422 43.538 95.4246 43.2833 94.9595 42.9332C94.4942 42.5829 94.1414 42.1849 93.9007 41.7393C93.66 41.2936 93.5236 40.808 93.4916 40.2827C93.4596 39.7575 93.4755 39.2241 93.5397 38.6829C93.7001 37.4413 94.1332 36.1042 94.839 34.6717C95.7375 33.0798 96.6919 31.8302 97.7025 30.9229C98.713 30.0156 99.6997 29.347 100.662 28.9172C101.625 28.4874 102.547 28.2567 103.429 28.2247C104.312 28.193 105.09 28.2567 105.763 28.4158C106.244 28.575 106.629 28.8137 106.918 29.132C107.175 29.3869 107.343 29.7529 107.424 30.2304C107.504 30.708 107.367 31.3129 107.014 32.045C106.758 32.5545 106.469 32.9843 106.148 33.3346C105.892 33.6529 105.587 33.9076 105.234 34.0985C104.881 34.2896 104.496 34.3056 104.079 34.1462C103.919 34.0827 103.774 33.9871 103.646 33.8598C103.389 33.6052 103.357 33.2867 103.55 32.9046C103.678 32.6819 103.886 32.4192 104.175 32.1168C104.464 31.8143 104.745 31.5198 105.017 31.2332C105.29 30.9468 105.499 30.6841 105.643 30.4454C105.787 30.2066 105.795 30.0395 105.667 29.9439C105.282 29.6575 104.825 29.6336 104.296 29.8723C103.766 30.1111 103.237 30.4454 102.707 30.8752C102.178 31.305 101.689 31.7744 101.24 32.2839C100.791 32.7934 100.454 33.1752 100.229 33.4301C99.1382 34.8308 98.32 36.1042 97.7746 37.2504C97.518 37.7279 97.3254 38.2135 97.1972 38.7068C97.0688 39.2003 97.0207 39.6539 97.0529 40.0679C97.0849 40.4817 97.2374 40.8399 97.5101 41.1423C97.7828 41.4449 98.2077 41.6439 98.7854 41.7393C99.5232 41.8985 100.269 41.8825 101.023 41.6916C101.777 41.5005 102.475 41.2618 103.116 40.9752C103.854 40.6249 104.576 40.2111 105.282 39.7336C105.763 39.4153 106.269 39.0013 106.798 38.492C107.327 37.9825 107.841 37.4573 108.338 36.9161C108.835 36.3748 109.3 35.8417 109.734 35.3163C110.167 34.791 110.528 34.3533 110.816 34.003C110.977 33.7802 111.169 33.5732 111.394 33.3823C111.619 33.1912 111.939 33.0957 112.356 33.0957C112.613 33.0957 112.789 33.1993 112.886 33.4062C112.982 33.6131 112.934 33.8439 112.741 34.0985C112.453 34.5125 112.052 35.0299 111.538 35.6506C111.025 36.2715 110.455 36.9239 109.83 37.6086C109.204 38.293 108.53 38.9934 107.809 39.7097C107.087 40.4261 106.341 41.0707 105.571 41.6439C104.833 42.2486 103.999 42.7421 103.068 43.1242C102.266 43.4744 101.328 43.7291 100.253 43.8883C99.1783 44.0474 98.0314 43.9837 96.8122 43.6971Z" fill="#0C1013"/>
<path d="M123.097 32.9522C123.354 32.9522 123.53 33.0556 123.627 33.2625C123.723 33.4696 123.675 33.7003 123.482 33.955C123.033 34.5599 122.424 35.3956 121.654 36.4621C120.884 37.5285 120.009 38.5792 119.031 39.614C118.052 40.6485 117.01 41.54 115.903 42.2881C114.796 43.0362 113.697 43.4104 112.606 43.4104C111.74 43.4104 111.098 43.1556 110.681 42.6463C110.264 42.1368 110.015 41.4763 109.935 40.6644C109.855 39.8526 109.935 38.9453 110.176 37.9425C110.417 36.9396 110.737 35.9287 111.139 34.91C111.539 33.8913 112.013 32.9124 112.558 31.9731C113.104 31.0341 113.665 30.2461 114.242 29.6094C114.467 29.2909 114.724 29.0202 115.012 28.7976C115.269 28.6064 115.542 28.4394 115.831 28.296C116.119 28.1528 116.408 28.1289 116.697 28.2244C117.338 28.4473 117.707 28.9009 117.804 29.5855C117.9 30.27 117.611 31.1057 116.937 32.0926C116.585 32.6019 116.183 33.3023 115.734 34.1938C115.285 35.0851 114.916 35.9686 114.627 36.8441C114.339 37.7197 114.178 38.4757 114.146 39.1124C114.114 39.7493 114.371 40.0676 114.916 40.0676C115.333 40.0676 115.855 39.8209 116.48 39.3274C117.106 38.8339 117.731 38.2609 118.357 37.6082C118.983 36.9556 119.584 36.279 120.162 35.5786C120.739 34.8782 121.204 34.3053 121.557 33.8595C121.718 33.6366 121.91 33.4297 122.135 33.2386C122.359 33.0477 122.68 32.9522 123.097 32.9522ZM119.007 23.9265C119.424 24.054 119.729 24.3246 119.921 24.7384C120.114 25.1522 120.13 25.582 119.969 26.0277C119.809 26.5053 119.528 26.8634 119.127 27.1023C118.726 27.341 118.317 27.3808 117.9 27.2216C117.483 27.0942 117.186 26.8157 117.01 26.3859C116.833 25.9561 116.825 25.5183 116.985 25.0727C117.146 24.6269 117.419 24.2847 117.804 24.0459C118.189 23.8072 118.59 23.7674 119.007 23.9265Z" fill="#0C1013"/>
<path d="M123.637 43.6971C122.866 43.538 122.249 43.2833 121.784 42.9332C121.318 42.5829 120.965 42.1849 120.725 41.7393C120.484 41.2936 120.348 40.808 120.316 40.2827C120.284 39.7575 120.3 39.2241 120.364 38.6829C120.524 37.4413 120.958 36.1042 121.663 34.6717C122.562 33.0798 123.516 31.8302 124.527 30.9229C125.537 30.0156 126.524 29.347 127.486 28.9172C128.449 28.4874 129.371 28.2567 130.254 28.2247C131.136 28.193 131.914 28.2567 132.588 28.4158C133.069 28.575 133.454 28.8137 133.743 29.132C133.999 29.3869 134.168 29.7529 134.248 30.2304C134.328 30.708 134.192 31.3129 133.839 32.045C133.165 33.2549 132.347 34.3533 131.384 35.3401C130.55 36.1679 129.532 36.932 128.329 37.6324C127.125 38.3328 125.706 38.6671 124.07 38.6352C123.845 39.3675 123.829 40.0281 124.022 40.617C124.214 41.206 124.743 41.5802 125.609 41.7393C126.347 41.8985 127.093 41.8825 127.847 41.6916C128.601 41.5005 129.299 41.2618 129.941 40.9752C130.679 40.6249 131.401 40.2111 132.106 39.7336C132.588 39.4153 133.093 39.0013 133.622 38.492C134.152 37.9825 134.665 37.4573 135.162 36.9161C135.66 36.3748 136.125 35.8417 136.558 35.3163C136.991 34.791 137.352 34.3533 137.641 34.003C137.801 33.7802 137.994 33.5732 138.218 33.3823C138.443 33.1912 138.78 33.0957 139.229 33.0957C139.453 33.0957 139.614 33.1993 139.71 33.4062C139.806 33.6131 139.758 33.8439 139.566 34.0985C139.277 34.5125 138.884 35.0299 138.387 35.6506C137.889 36.2715 137.328 36.9239 136.702 37.6086C136.077 38.293 135.395 38.9934 134.657 39.7097C133.919 40.4261 133.181 41.0707 132.443 41.6439C131.673 42.2486 130.823 42.7421 129.893 43.1242C129.09 43.4744 128.152 43.7291 127.077 43.8883C126.003 44.0474 124.856 43.9837 123.637 43.6971ZM127.053 33.4301C126.797 33.7484 126.54 34.0827 126.283 34.4328C126.059 34.7512 125.818 35.1172 125.561 35.5312C125.305 35.945 125.064 36.3748 124.84 36.8206C125.577 36.6614 126.275 36.3829 126.933 35.9849C127.591 35.5869 128.176 35.1969 128.69 34.8149C129.267 34.3691 129.812 33.8916 130.326 33.3823C130.518 33.1594 130.767 32.8807 131.072 32.5466C131.376 32.2123 131.657 31.8701 131.914 31.5198C132.171 31.1697 132.363 30.8433 132.491 30.5409C132.62 30.2383 132.62 30.0395 132.491 29.9439C132.106 29.6575 131.649 29.6336 131.12 29.8723C130.59 30.1111 130.061 30.4454 129.532 30.8752C129.002 31.305 128.513 31.7744 128.064 32.2839C127.615 32.7934 127.278 33.1752 127.053 33.4301Z" fill="#0C1013"/>
<path d="M147.805 43.4108C146.682 43.4108 145.928 42.9889 145.543 42.1453C145.158 41.3015 145.046 40.2749 145.207 39.065C144.372 40.1475 143.482 41.0946 142.536 41.9064C141.589 42.7183 140.651 43.0924 139.72 43.0287C139.624 42.9968 139.536 42.981 139.456 42.981C139.375 42.981 139.303 42.965 139.239 42.9333C138.469 42.7741 137.916 42.4636 137.579 42.0019C137.242 41.5404 137.017 41.0469 136.905 40.5216C136.793 39.9964 136.761 39.4948 136.809 39.0173C136.857 38.5398 136.897 38.2214 136.929 38.0622V37.9668H136.977C137.009 37.6802 137.057 37.4413 137.122 37.2504C137.154 37.123 137.186 37.0275 137.218 36.9638C137.603 35.595 138.148 34.2419 138.854 32.9046C139.56 31.5676 140.282 30.4693 141.02 29.6098C141.276 29.2912 141.549 29.0206 141.838 28.7979C142.094 28.6068 142.359 28.4397 142.632 28.2964C142.904 28.1532 143.185 28.1293 143.474 28.2248C144.116 28.4796 144.485 28.9411 144.581 29.6098C144.677 30.2782 144.388 31.122 143.715 32.1407C143.522 32.4271 143.289 32.8013 143.017 33.2628C142.744 33.7246 142.463 34.226 142.175 34.7672C141.886 35.3084 141.605 35.8496 141.332 36.3908C141.06 36.9321 140.843 37.4413 140.683 37.9191C140.619 38.0782 140.562 38.2453 140.514 38.4204C140.466 38.5956 140.41 38.7626 140.346 38.9218C140.185 39.3676 140.105 39.7177 140.105 39.9723C140.105 40.2271 140.137 40.4181 140.202 40.5455C140.266 40.6729 140.346 40.7684 140.442 40.8321C140.827 40.9275 141.252 40.808 141.717 40.4739C142.183 40.1396 142.664 39.6938 143.161 39.1366C143.659 38.5796 144.14 37.9668 144.605 37.2981C145.07 36.6295 145.487 35.9928 145.856 35.3879C146.225 34.7832 146.53 34.2577 146.77 33.8121C147.011 33.3664 147.164 33.0958 147.228 33.0003C147.581 32.3636 147.95 31.7506 148.335 31.1616C148.72 30.5727 149.105 30.0553 149.49 29.6098C149.714 29.2912 149.971 29.0206 150.26 28.7979C150.516 28.6068 150.781 28.4397 151.054 28.2964C151.326 28.1532 151.607 28.1293 151.896 28.2248C152.537 28.4796 152.906 28.9411 153.003 29.6098C153.099 30.2782 152.81 31.122 152.136 32.1407C151.912 32.4591 151.655 32.8889 151.366 33.4301C151.078 33.9713 150.805 34.5364 150.548 35.1254C150.292 35.7143 150.059 36.3033 149.851 36.8922C149.642 37.4812 149.505 38.0145 149.441 38.492C149.377 38.9695 149.393 39.3595 149.49 39.6621C149.586 39.9644 149.81 40.0997 150.163 40.068C150.58 40.068 151.102 39.8291 151.727 39.3516C152.353 38.8741 152.979 38.3009 153.604 37.6325C154.23 36.9638 154.823 36.2794 155.385 35.579C155.946 34.8786 156.403 34.3056 156.756 33.8599C156.917 33.637 157.109 33.4301 157.334 33.239C157.558 33.048 157.895 32.9526 158.344 32.9526C158.569 32.9526 158.729 33.0559 158.826 33.2628C158.922 33.4699 158.874 33.7007 158.681 33.9553C158.232 34.5603 157.622 35.396 156.852 36.4624C156.083 37.5289 155.208 38.5796 154.23 39.6143C153.251 40.6488 152.208 41.5404 151.102 42.2885C149.995 43.0366 148.896 43.4108 147.805 43.4108Z" fill="#0C1013"/>
<path d="M160.809 37.7276C160.776 38.428 160.801 39.1284 160.881 39.8288C160.961 40.5292 161.049 41.4048 161.145 42.4553C161.177 42.8693 161.145 43.1797 161.049 43.3866C160.953 43.5935 160.825 43.7606 160.664 43.888C160.504 44.0154 160.311 44.0949 160.087 44.1267C159.67 44.2223 159.309 44.1348 159.004 43.8641C158.699 43.5935 158.434 43.2432 158.21 42.8135C157.985 42.3837 157.809 41.8902 157.681 41.3332C157.552 40.776 157.456 40.2586 157.392 39.7811C156.75 40.386 156.285 40.959 155.996 41.5002C155.707 42.0415 155.531 42.5032 155.467 42.8851C155.403 43.1399 155.274 43.3389 155.082 43.4821C154.889 43.6253 154.665 43.6811 154.408 43.6492H154.264C153.975 43.6174 153.734 43.49 153.542 43.2671C153.349 43.0444 153.285 42.7738 153.349 42.4553C153.446 42.0097 153.63 41.548 153.903 41.0705C154.175 40.5929 154.488 40.1314 154.841 39.6856C155.194 39.2399 155.571 38.818 155.972 38.4202C156.373 38.0221 156.75 37.6799 157.103 37.3933H157.151C157.087 36.0562 157.159 34.7113 157.368 33.3582C157.576 32.0052 157.873 30.8192 158.258 29.8004C158.418 29.4184 158.579 29.0683 158.739 28.7499C158.9 28.4951 159.084 28.2564 159.293 28.0336C159.501 27.8107 159.766 27.6833 160.087 27.6515C160.76 27.6515 161.258 27.962 161.579 28.5827C161.899 29.2036 161.915 30.1028 161.627 31.2809C161.562 31.631 161.474 32.0768 161.362 32.618C161.25 33.1592 161.162 33.7482 161.097 34.3848C162.252 33.0478 163.183 31.7584 163.889 30.5168C164.594 29.2752 165.108 28.3359 165.428 27.6992C165.557 27.4446 165.757 27.2616 166.03 27.1501C166.303 27.0387 166.567 27.0306 166.824 27.1262H166.872C167.129 27.2535 167.321 27.4446 167.45 27.6992C167.578 27.9539 167.594 28.2245 167.498 28.5111C167.209 29.4343 166.816 30.3178 166.319 31.1614C165.821 32.0052 165.268 32.817 164.658 33.5969C164.049 34.377 163.407 35.1012 162.734 35.7697C162.06 36.4383 161.418 37.059 160.809 37.6322V37.7276Z" fill="#0C1013"/>
<path d="M162.964 20.6292C160.889 20.8265 158.945 20.9214 157.13 20.9141C155.316 20.9066 153.813 20.7977 152.621 20.5869C151.43 20.3763 150.523 20.1667 149.902 19.9585C149.281 19.75 148.634 19.4388 147.962 19.0245C147.29 18.6101 146.696 18.0933 146.18 17.4738C145.664 16.8543 145.278 16.2097 145.021 15.5398C144.765 14.87 139.218 14.7701 128.38 15.2402C117.543 15.7103 111.839 15.8927 111.269 15.7875C110.699 15.6823 110.182 15.5001 109.716 15.241C109.251 14.9818 108.915 14.6975 108.709 14.388C108.503 14.0785 108.375 13.6921 108.325 13.2289C108.275 12.7657 108.302 12.3799 108.407 12.0717C108.512 11.7634 108.721 11.4556 109.034 11.1482C109.346 10.8408 109.839 10.5599 110.515 10.3054C111.19 10.0509 117.047 10.255 128.087 10.9175C139.127 11.5801 144.805 11.5261 145.119 10.7557C145.433 9.98535 145.825 9.34387 146.293 8.83133C146.762 8.3188 147.23 7.90915 147.698 7.60237C148.166 7.29561 148.815 6.98961 149.646 6.68433C150.477 6.37906 151.645 6.12659 153.149 5.92696C154.653 5.72735 157.194 5.73775 160.77 5.95816C164.346 6.1786 166.133 6.57176 166.131 7.13765C166.129 7.70355 164.053 8.05517 159.905 8.19254C155.757 8.32989 153.682 8.63008 153.68 9.09308C153.678 9.55609 153.833 9.81394 154.143 9.86666C154.454 9.91937 156.528 10.0308 160.363 10.2008C164.199 10.3708 166.116 10.7131 166.114 11.2275C166.112 11.742 164.037 12.0679 159.888 12.2053C155.74 12.3426 153.665 12.6685 153.663 13.183C153.661 13.6974 155.733 14.0403 159.88 14.2116C164.027 14.3829 166.099 14.7515 166.097 15.3174C166.095 15.8833 164.019 16.2349 159.871 16.3723C155.723 16.5097 153.648 16.8356 153.646 17.35C153.644 17.8645 155.716 18.2073 159.863 18.3787C164.01 18.55 166.082 18.9186 166.079 19.4844C166.077 20.0503 165.039 20.432 162.964 20.6292ZM144.64 13.7634C144.64 13.7119 144.64 13.6605 144.64 13.609C143.37 13.6039 142.1 13.5987 140.83 13.5934C138.289 13.583 132.872 13.638 124.576 13.7584C116.28 13.8788 111.848 13.8092 111.279 13.5497C110.71 13.2901 110.27 12.9282 109.961 12.4639C109.807 12.2318 109.652 11.9996 109.497 11.7675C109.522 12.0505 109.547 12.3336 109.572 12.6166C109.621 13.1827 109.801 13.6208 110.111 13.9307C110.42 14.2407 110.834 14.4996 111.352 14.7075C111.869 14.9154 117.547 14.8357 128.384 14.4685C139.22 14.1013 144.639 13.8663 144.64 13.7634Z" fill="#EF4135"/>
</g>
</g>
<defs>
<clipPath id="clip0_179_57">
<rect width="169" height="52" fill="white"/>
</clipPath>
</defs>
</svg>
